<svg width="230" height="208" viewBox="0 0 230 208" fill="none" xmlns="http://www.w3.org/2000/svg">
<g clip-path="url(#clip0_3_5809)">
<path d="M150.29 206.344L92.3379 144.896" stroke="#315FD8" stroke-width="5.39486" stroke-miterlimit="10"/>
<path d="M135.799 177.361L190.005 130.405" stroke="#8CE4FF" stroke-width="5.39486" stroke-miterlimit="10"/>
<path d="M175.512 166.633L132.034 112.149" stroke="#FF3333" stroke-width="5.39486" stroke-miterlimit="10"/>
<path d="M190.005 155.624L226.218 104.903" stroke="#8CE4FF" stroke-width="5.39486" stroke-miterlimit="10"/>
<path d="M175.511 141.132L110.294 83.166" stroke="#FF4F23" stroke-width="5.39486" stroke-miterlimit="10"/>
<path d="M121.306 148.378L59.5898 86.949" stroke="#FF3333" stroke-width="5.39486" stroke-miterlimit="10"/>
<path d="M88.5564 144.896L23.3584 90.4119" stroke="#FF3333" stroke-width="5.39486" stroke-miterlimit="10"/>
<path d="M37.8507 123.159L1.61914 90.4119" stroke="#315FD8" stroke-width="5.39486" stroke-miterlimit="10"/>
<path d="M16.1109 119.395L12.6289 50.7202" stroke="#FF3333" stroke-width="5.39486" stroke-miterlimit="10"/>
<path d="M19.875 83.166L37.8496 46.9561" stroke="#FF3333" stroke-width="5.39486" stroke-miterlimit="10"/>
<path d="M48.8613 25.2189L124.788 10.7274" stroke="#315FD8" stroke-width="5.39486" stroke-miterlimit="10"/>
<path d="M74.083 7.24573L161.02 14.4915" stroke="#FF3333" stroke-width="5.39486" stroke-miterlimit="10"/>
<path d="M99.5846 75.9203L66.835 10.7274" stroke="#315FD8" stroke-width="5.39486" stroke-miterlimit="10"/>
<path d="M146.525 119.395L168.264 28.9832" stroke="#FF3333" stroke-width="5.39486" stroke-miterlimit="10"/>
<path d="M103.048 119.395L34.3682 57.9661" stroke="#8CE4FF" stroke-width="5.39486" stroke-miterlimit="10"/>
<path d="M124.787 123.159L114.059 36.2288" stroke="#FF4F23" stroke-width="5.39486" stroke-miterlimit="10"/>
<path d="M168.265 119.395L99.585 36.2288" stroke="#FF4F23" stroke-width="5.39486" stroke-miterlimit="10"/>
<path d="M157.537 137.65L197.251 36.2288" stroke="#FF4F23" stroke-width="5.39486" stroke-miterlimit="10"/>
<path d="M197.251 166.633L139.28 21.7373" stroke="#FF3333" stroke-width="5.39486" stroke-miterlimit="10"/>
<path d="M201.015 126.64L175.512 46.9561" stroke="#FF3333" stroke-width="5.39486" stroke-miterlimit="10"/>
<path d="M204.478 94.1949L208.261 54.2021" stroke="#8CE4FF" stroke-width="5.39486" stroke-miterlimit="10"/>
<path d="M218.971 115.913V72.4575" stroke="#315FD8" stroke-width="5.39486" stroke-miterlimit="10"/>
<path d="M226.217 112.149L175.512 32.4646" stroke="#315FD8" stroke-width="5.39486" stroke-miterlimit="10"/>
<path d="M193.768 79.7031L146.525 32.4646" stroke="#FF3333" stroke-width="5.39486" stroke-miterlimit="10"/>
<path d="M211.743 54.2019L157.537 10.7274" stroke="#8CE4FF" stroke-width="5.39486" stroke-miterlimit="10"/>
<path d="M179.275 46.9562L150.29 10.7274" stroke="#8CE4FF" stroke-width="5.39486" stroke-miterlimit="10"/>
<path d="M81.3281 115.913L161.019 46.9561" stroke="#FF3333" stroke-width="5.39486" stroke-miterlimit="10"/>
<path d="M48.8613 126.641L99.5856 36.2288" stroke="#FF3333" stroke-width="5.39486" stroke-miterlimit="10"/>
<path d="M56.1064 104.903L63.3528 39.7104" stroke="#FF4F23" stroke-width="5.39486" stroke-miterlimit="10"/>
<path d="M114.059 148.378L70.5996 25.3884" stroke="#FF3333" stroke-width="5.39486" stroke-miterlimit="10"/>
<path d="M139.28 195.616L121.306 115.913" stroke="#FF4F23" stroke-width="5.39486" stroke-miterlimit="10"/>
<path d="M146.525 184.606L190.003 119.395" stroke="#FF4F23" stroke-width="5.39486" stroke-miterlimit="10"/>
<path d="M124.788 170.115L95.8213 83.0156" stroke="#FF4F23" stroke-width="5.39486" stroke-miterlimit="10"/>
<path d="M139.28 162.869L157.537 72.4575" stroke="#315FD8" stroke-width="5.39486" stroke-miterlimit="10"/>
<path d="M135.798 126.641L114.078 50.7202" stroke="#FF4F23" stroke-width="5.39486" stroke-miterlimit="10"/>
<path d="M175.512 97.6575L197.251 43.4744" stroke="#FF4F23" stroke-width="5.39486" stroke-miterlimit="10"/>
<path d="M157.537 61.4477L63.3535 14.4915" stroke="#315FD8" stroke-width="5.39486" stroke-miterlimit="10"/>
<path d="M114.059 155.624L48.8613 94.0442" stroke="#315FD8" stroke-width="5.39486" stroke-miterlimit="10"/>
<path d="M112.176 133.886L159.286 43.4932" stroke="#315FD8" stroke-width="5.39486" stroke-miterlimit="10"/>
<path d="M101.317 114.031L48.8613 34.3467" stroke="#FF4F23" stroke-width="5.39486" stroke-miterlimit="10"/>
<path d="M12.6289 90.4119L90.4562 36.2288" stroke="#FF3333" stroke-width="5.39486" stroke-miterlimit="10"/>
<path d="M37.8506 94.1947L59.5895 36.2288" stroke="#315FD8" stroke-width="5.39486" stroke-miterlimit="10"/>
<path d="M24.3359 56.0841L66.9669 17.9734" stroke="#8CE4FF" stroke-width="5.39486" stroke-miterlimit="10"/>
<path d="M32.4854 34.3466L128.57 12.6094" stroke="#8CE4FF" stroke-width="5.39486" stroke-miterlimit="10"/>
<path d="M135.798 25.219L88.5938 72.3069" stroke="#8CE4FF" stroke-width="5.39486" stroke-miterlimit="10"/>
<path d="M101.316 32.6152L135.798 75.9203" stroke="#315FD8" stroke-width="5.39486" stroke-miterlimit="10"/>
<path d="M110.295 101.422L104.931 45.2061" stroke="#8CE4FF" stroke-width="5.39486" stroke-miterlimit="10"/>
<path d="M215.508 115.913L121.306 21.7373" stroke="#8CE4FF" stroke-width="5.39486" stroke-miterlimit="10"/>
<path d="M161.17 160.253L121.306 32.4646" stroke="#FF4F23" stroke-width="5.39486" stroke-miterlimit="10"/>
<path d="M137.549 14.4915L204.497 78.0094" stroke="#8CE4FF" stroke-width="5.39486" stroke-miterlimit="10"/>
<path d="M213.625 61.5793L222.001 99.8783" stroke="#FF4F23" stroke-width="5.39486" stroke-miterlimit="10"/>
<path d="M175.512 170.115L220.872 128.523" stroke="#8CE4FF" stroke-width="5.39486" stroke-miterlimit="10"/>
<path d="M177.394 157.506L196.422 112.3" stroke="#8CE4FF" stroke-width="5.39486" stroke-miterlimit="10"/>
<path d="M146.526 199.098L103.048 130.198" stroke="#FF4F23" stroke-width="5.39486" stroke-miterlimit="10"/>
<path d="M148.407 179.243L157.385 106.785" stroke="#FF4F23" stroke-width="5.39486" stroke-miterlimit="10"/>
<path d="M218.973 68.6935C219.537 68.6935 222.699 68.5617 222.737 68.8629V72.4575C221.476 72.4575 220.215 72.4575 218.973 72.4575C218.973 71.1966 218.973 69.9356 218.973 68.6935Z" fill="#101E59"/>
<path d="M8.86523 75.9204C8.86523 74.7724 8.86523 73.6056 8.86523 72.4387H16.1116C16.1116 73.5867 16.0927 74.7536 16.1116 75.9204C13.7024 75.9204 11.2744 75.8828 8.86523 75.9204Z" fill="#101E59"/>
<path d="M19.877 75.9204C19.877 74.7724 19.877 73.6056 19.877 72.4387H27.1233C27.1233 77.2567 27.1233 82.1123 27.1233 86.9302C25.8622 86.9114 24.6012 86.9302 23.3589 86.9302V75.9204C22.2108 75.9204 21.0439 75.9204 19.877 75.9204Z" fill="#101E59"/>
<path d="M182.759 68.6934C185.168 68.7311 187.596 68.6746 190.005 68.6934C190.005 69.9544 190.005 71.2153 190.005 72.4574C187.596 72.4386 185.168 72.4574 182.759 72.4574C182.759 71.1965 182.759 69.9355 182.759 68.6934Z" fill="#101E59"/>
<path d="M56.1084 72.4575C57.2565 72.4575 58.4235 72.4575 59.5904 72.4575C59.5904 73.6055 59.5904 74.7724 59.5904 75.9392C58.4423 75.9392 57.2753 75.9392 56.1084 75.9392C56.1084 74.7912 56.1084 73.6244 56.1084 72.4575Z" fill="#101E59"/>
<path d="M66.8355 72.4575C66.8355 73.6055 66.8355 74.7724 66.8355 75.9392C65.6874 75.9392 64.5205 75.9392 63.3535 75.9392C63.3535 74.7912 63.3535 73.6244 63.3535 72.4575C64.5016 72.4575 65.6686 72.4575 66.8355 72.4575Z" fill="#101E59"/>
<path d="M88.5576 72.4575C89.8187 72.4763 91.0797 72.4575 92.3219 72.4575C92.3219 73.6055 92.3219 74.7724 92.3219 75.9392C91.0609 75.9392 89.7998 75.9392 88.5576 75.9392C88.5576 74.7912 88.5764 73.6244 88.5576 72.4575Z" fill="#101E59"/>
<path d="M103.049 72.4575C103.049 73.6055 103.049 74.7724 103.049 75.9392C101.901 75.9392 100.734 75.9392 99.5674 75.9392C99.5674 74.7912 99.5674 73.6244 99.5674 72.4575C100.716 72.4575 101.882 72.4575 103.049 72.4575Z" fill="#101E59"/>
<path d="M103.049 68.6934C104.31 68.6934 105.571 68.6934 106.813 68.6934C106.813 69.9543 106.813 71.2153 106.813 72.4574C105.552 72.4574 104.291 72.4574 103.049 72.4574C103.049 71.1964 103.049 69.9355 103.049 68.6934Z" fill="#101E59"/>
<path d="M106.833 72.4575C107.981 72.4575 109.148 72.4575 110.315 72.4575C110.315 73.6055 110.315 74.7724 110.315 75.9392C109.167 75.9392 108 75.9392 106.833 75.9392C106.833 74.7912 106.833 73.6244 106.833 72.4575Z" fill="#101E59"/>
<path d="M99.5856 68.6934C99.5856 69.9543 99.5856 71.2153 99.5856 72.4574C98.3246 72.4574 97.0635 72.4574 95.8213 72.4574C95.8213 71.1964 95.8213 69.9355 95.8213 68.6934C97.0823 68.6934 98.3434 68.6934 99.5856 68.6934Z" fill="#101E59"/>
<path d="M85.0928 68.6934C86.2409 68.6934 87.4078 68.6934 88.5748 68.6934C88.5748 69.9543 88.556 71.2153 88.5748 72.4574C87.4267 72.4574 86.2597 72.4574 85.0928 72.4574C85.0928 71.1964 85.1116 69.9355 85.0928 68.6934Z" fill="#101E59"/>
<path d="M153.773 72.4575C155.034 72.4575 156.296 72.4575 157.538 72.4575C157.538 73.6055 157.538 74.7724 157.538 75.9392C156.277 75.9392 155.016 75.9392 153.773 75.9392C153.773 74.7912 153.773 73.6244 153.773 72.4575Z" fill="#101E59"/>
<path d="M164.784 75.9204C164.784 75.3747 164.652 72.4764 164.953 72.4387H168.266C168.266 73.6056 168.247 74.7724 168.266 75.9204C167.117 75.9204 165.951 75.9204 164.784 75.9204Z" fill="#101E59"/>
<path d="M168.266 75.9204C169.527 75.9204 170.788 75.9204 172.03 75.9204C172.03 77.1814 172.03 78.4423 172.03 79.6844C170.769 79.6656 169.508 79.6844 168.266 79.6844C168.266 78.4235 168.284 77.1625 168.266 75.9204Z" fill="#101E59"/>
<path d="M175.512 72.4574C174.364 72.4574 173.197 72.4574 172.03 72.4574V65.2117H175.512C175.531 67.6206 175.475 70.0484 175.512 72.4574C177.921 72.4951 180.349 72.4574 182.759 72.4574C182.759 73.6054 182.759 74.7723 182.759 75.9391H186.523C186.523 78.3481 186.523 80.7759 186.523 83.1849C184.114 83.1849 181.686 83.1849 179.277 83.1849V75.9391H175.512C175.512 74.7911 175.512 73.6243 175.512 72.4574Z" fill="#101E59"/>
<path d="M218.971 72.4573C218.971 76.0332 218.971 79.609 218.971 83.1848C217.823 83.1848 216.656 83.1848 215.489 83.1848C215.47 80.7758 215.489 78.348 215.489 75.9391C214.228 75.9391 212.967 75.9579 211.725 75.9391C211.725 74.791 211.725 73.6242 211.725 72.4573C214.134 72.4385 216.562 72.4762 218.971 72.4573Z" fill="#101E59"/>
<path d="M8.86546 75.9204C8.86546 77.1814 8.86546 78.4423 8.86546 79.6844H12.6298V86.9302H16.1118V83.1662H19.8761C19.8761 85.5751 19.8761 88.0029 19.8761 90.4119C17.4669 90.3743 15.0389 90.4307 12.6298 90.4119V94.1759H16.1118C16.1118 97.7518 16.1118 101.328 16.1118 104.903C14.9637 104.922 13.7967 104.903 12.6298 104.903V112.149H8.86546C8.86546 108.573 8.86546 104.997 8.86546 101.422C10.1265 101.422 11.3876 101.422 12.6298 101.422V97.827C12.5921 97.5259 9.43011 97.6576 8.86546 97.6576C8.86546 96.5096 8.86546 95.3428 8.86546 94.1759C7.71734 94.1759 6.5504 94.1759 5.38346 94.1759C5.38346 92.915 5.38346 91.654 5.38346 90.4119C4.12241 90.4119 2.86137 90.4119 1.61914 90.4119V86.9302H5.38346C5.38346 88.0782 5.38346 89.2451 5.38346 90.4119C6.53158 90.4119 7.69852 90.4119 8.86546 90.4119V83.1662H5.38346V75.9204C6.53158 75.9204 7.69852 75.9204 8.86546 75.9204Z" fill="#101E59"/>
<path d="M146.526 65.2117C146.526 66.3597 146.526 67.5265 146.526 68.6934H150.121C150.422 68.6557 150.29 65.7575 150.29 65.2117C152.7 65.2117 155.128 65.2493 157.537 65.2117C157.537 66.3597 157.537 67.5265 157.537 68.6934H153.772C153.772 69.9355 153.772 71.2153 153.772 72.4574C152.624 72.4574 151.457 72.4574 150.29 72.4574C150.29 73.6054 150.29 74.7723 150.29 75.9391C149.029 75.9391 147.768 75.9391 146.526 75.9391C146.526 74.7911 146.526 73.6243 146.526 72.4574C145.378 72.4574 144.211 72.4762 143.044 72.4574C143.006 70.0484 143.044 67.6206 143.044 65.2117C144.192 65.2117 145.359 65.2117 146.526 65.2117Z" fill="#101E59"/>
<path d="M19.8766 75.9204C19.8766 76.485 20.0084 79.6468 19.7072 79.6844H16.1123C16.1123 78.4235 16.1311 77.1625 16.1123 75.9204C17.3734 75.9204 18.6344 75.9204 19.8766 75.9204Z" fill="#101E59"/>
<path d="M63.3542 75.9204C63.3542 77.1814 63.3542 78.4423 63.3542 79.6844C62.0931 79.6844 60.8321 79.6844 59.5898 79.6844C59.5898 78.4235 59.5898 77.1625 59.5898 75.9204C60.8509 75.9204 62.1119 75.9204 63.3542 75.9204Z" fill="#101E59"/>
<path d="M139.281 65.2117C139.262 67.6206 139.3 70.0484 139.281 72.4574C140.542 72.4574 141.803 72.4386 143.045 72.4574C143.045 73.6054 143.045 74.7723 143.045 75.9391C144.193 75.9391 145.36 75.9391 146.527 75.9391C146.527 77.2001 146.527 78.461 146.527 79.7032C144.118 79.6843 141.69 79.722 139.281 79.7032C139.281 78.4422 139.281 77.1813 139.281 75.9391C138.133 75.9391 136.966 75.9391 135.799 75.9391C135.761 72.3633 135.837 68.7875 135.799 65.2117C136.947 65.2117 138.114 65.2117 139.281 65.2117Z" fill="#101E59"/>
<path d="M66.8369 75.9203C67.4016 75.9203 70.5636 75.7886 70.6012 76.0897V79.6843C69.3402 79.6843 68.0791 79.6843 66.8369 79.6843C66.8369 78.4234 66.8369 77.1624 66.8369 75.9203Z" fill="#101E59"/>
<path d="M74.083 86.949C74.083 83.2791 74.083 79.6091 74.083 75.9392H77.6779C77.9414 79.5903 77.885 83.2979 77.8473 86.949C76.5863 86.949 75.3252 86.949 74.083 86.949Z" fill="#101E59"/>
<path d="M85.0935 90.4119C85.0747 88.0029 85.0935 85.5751 85.0935 83.1662H81.3292V75.9204H85.0935V79.6844C87.5026 79.7033 89.9306 79.6468 92.3398 79.6844C92.3398 80.8325 92.3398 81.9993 92.3398 83.1662C91.0788 83.185 89.8177 83.1662 88.5755 83.1662V86.9302H92.3398C92.3398 85.6692 92.3398 84.4083 92.3398 83.1662C92.8856 83.1662 95.7841 83.2979 95.8218 82.9968V79.6844C94.6549 79.6844 93.4879 79.6844 92.3398 79.6844C92.3398 78.4235 92.3398 77.1625 92.3398 75.9204C94.749 75.9392 97.1769 75.9204 99.5861 75.9204C99.5861 77.1814 99.5861 78.4423 99.5861 79.6844H102.899C103.2 79.6468 103.068 76.485 103.068 75.9204C104.329 75.9204 105.59 75.9204 106.832 75.9204C106.832 78.3294 106.832 80.7572 106.832 83.1662C107.981 83.1662 109.147 83.1473 110.314 83.1662C110.314 84.4271 110.314 85.6881 110.314 86.9302C109.166 86.9302 107.999 86.9302 106.832 86.9302C106.832 88.0782 106.832 89.2451 106.832 90.4119C104.423 90.4119 101.995 90.4119 99.5861 90.4119V94.1759H95.9912L95.8218 90.3931H92.3398C92.3398 92.8021 92.3398 95.2299 92.3398 97.6388C91.0788 97.6388 89.8177 97.6388 88.5755 97.6388V101.403H81.3292V104.885H85.0935V108.649H77.8472C77.8472 109.797 77.8472 110.963 77.8472 112.13C76.5861 112.13 75.3251 112.13 74.0828 112.13V115.725C74.1205 116.026 77.2825 115.894 77.8472 115.894C77.8472 117.042 77.8472 118.209 77.8472 119.376C76.5861 119.376 75.3251 119.376 74.0828 119.376C74.0828 120.637 74.0828 121.898 74.0828 123.14C71.6737 123.14 69.2457 123.14 66.8365 123.14V126.622H70.6008C70.6008 127.883 70.6008 129.144 70.6008 130.386C69.3398 130.386 68.0787 130.386 66.8365 130.386V133.868H70.6008C70.6008 132.72 70.6008 131.553 70.6008 130.386C71.749 130.386 72.9159 130.386 74.0828 130.386C74.0828 131.534 74.0828 132.701 74.0828 133.868C76.492 133.868 78.92 133.849 81.3292 133.868C81.3292 135.129 81.3292 136.389 81.3292 137.632H85.0935V144.877C86.2416 144.877 87.4085 144.859 88.5755 144.877C88.5755 146.025 88.5755 147.192 88.5755 148.359H92.3398V144.877C91.0788 144.877 89.8177 144.896 88.5755 144.877C88.5378 141.207 88.6131 137.537 88.5755 133.868C86.1663 133.868 83.7383 133.886 81.3292 133.868C81.3292 132.72 81.3292 131.553 81.3292 130.386C82.5902 130.386 83.8513 130.386 85.0935 130.386V126.791C85.0558 126.49 81.8938 126.641 81.3292 126.622C81.3292 125.474 81.3292 124.307 81.3292 123.14C83.7383 123.14 86.1663 123.121 88.5755 123.14C88.5943 125.549 88.5567 127.977 88.5755 130.386H95.8218C95.8218 131.534 95.8218 132.701 95.8218 133.868C94.6737 133.868 93.5067 133.868 92.3398 133.868V137.462C92.3774 137.763 95.276 137.613 95.8218 137.632C95.8218 138.78 95.8218 139.946 95.8218 141.113H99.5861V137.632C98.3251 137.632 97.064 137.65 95.8218 137.632C95.8218 136.371 95.8218 135.11 95.8218 133.868C98.231 133.83 100.659 133.868 103.068 133.868C103.068 134.62 102.88 141.057 103.238 141.113H106.832C106.832 138.704 106.832 136.277 106.832 133.868C107.981 133.868 109.147 133.868 110.314 133.868C110.314 137.537 110.314 141.207 110.314 144.877C113.985 144.877 117.655 144.877 121.325 144.877C121.344 146.025 121.325 147.192 121.325 148.359H128.571V144.877C126.162 144.877 123.734 144.877 121.325 144.877C121.306 143.635 121.325 142.355 121.325 141.113H114.079V133.868C112.818 133.868 111.557 133.868 110.314 133.868C110.314 131.459 110.314 129.031 110.314 126.622C111.575 126.622 112.837 126.622 114.079 126.622C114.098 127.883 114.079 129.144 114.079 130.386C115.227 130.386 116.394 130.386 117.561 130.386C117.561 132.795 117.561 135.223 117.561 137.632H121.156C121.513 137.575 121.325 131.139 121.325 130.386C124.901 130.386 128.477 130.386 132.053 130.386C132.053 130.932 131.922 133.83 132.223 133.868H135.818C135.818 132.701 135.799 131.534 135.818 130.386C136.966 130.386 138.133 130.386 139.3 130.386C139.3 131.534 139.3 132.701 139.3 133.868C140.561 133.868 141.822 133.849 143.064 133.868C143.083 135.129 143.064 136.389 143.064 137.632C144.212 137.632 145.379 137.613 146.546 137.632C146.546 138.78 146.546 139.946 146.546 141.113H150.31V137.632C149.049 137.632 147.788 137.65 146.546 137.632C146.527 136.371 146.546 135.11 146.546 133.868C145.398 133.868 144.231 133.886 143.064 133.868C143.064 132.72 143.064 131.553 143.064 130.386C141.803 130.386 140.542 130.386 139.3 130.386C139.3 129.125 139.3 127.864 139.3 126.622C139.864 126.622 143.026 126.754 143.064 126.452V123.14C141.803 123.14 140.542 123.159 139.3 123.14C139.3 120.731 139.3 118.303 139.3 115.894H135.818V112.13H132.053C132.053 108.555 132.053 104.979 132.053 101.403C133.314 101.403 134.575 101.403 135.818 101.403C135.818 103.812 135.818 106.24 135.818 108.649C136.966 108.649 138.133 108.649 139.3 108.649C139.3 109.797 139.3 110.963 139.3 112.13H143.064V119.376C144.212 119.376 145.379 119.357 146.546 119.376C146.546 123.046 146.546 126.716 146.546 130.386C147.807 130.386 149.068 130.386 150.31 130.386C150.31 131.534 150.31 132.701 150.31 133.868C152.72 133.886 155.147 133.83 157.557 133.868C157.575 135.129 157.557 136.389 157.557 137.632H161.039V133.868C159.891 133.868 158.724 133.868 157.557 133.868C157.557 132.72 157.557 131.553 157.557 130.386C155.147 130.386 152.72 130.405 150.31 130.386C150.273 126.716 150.348 123.046 150.31 119.376C149.049 119.376 147.788 119.395 146.546 119.376C146.546 115.8 146.546 112.224 146.546 108.649C147.807 108.649 149.068 108.649 150.31 108.649C150.31 109.401 150.122 115.838 150.48 115.894H153.792C153.774 113.485 153.811 111.058 153.792 108.649C155.053 108.649 156.314 108.649 157.557 108.649C157.557 109.797 157.557 110.963 157.557 112.13H160.869C161.17 112.093 161.039 109.194 161.039 108.649C162.3 108.649 163.561 108.649 164.803 108.649C164.803 109.797 164.803 110.963 164.803 112.13H168.285V108.649C167.137 108.649 165.97 108.649 164.803 108.649C164.803 107.388 164.803 106.127 164.803 104.885C167.212 104.885 169.64 104.922 172.049 104.885C172.049 106.146 172.049 107.406 172.049 108.649C176.868 108.649 181.724 108.63 186.542 108.649C186.542 109.797 186.542 110.963 186.542 112.13C185.281 112.13 184.02 112.13 182.778 112.13V115.725C182.815 116.026 185.977 115.876 186.542 115.894C186.542 117.042 186.542 118.209 186.542 119.376C184.133 119.414 181.705 119.376 179.296 119.376C179.277 116.967 179.314 114.539 179.296 112.13H172.049V115.894H175.531C175.531 117.042 175.531 118.209 175.531 119.376C174.383 119.376 173.216 119.376 172.049 119.376V123.14H175.531C175.531 121.879 175.531 120.618 175.531 119.376C176.792 119.376 178.053 119.376 179.296 119.376C179.296 120.637 179.296 121.898 179.296 123.14C181.705 123.14 184.133 123.121 186.542 123.14C186.542 124.288 186.542 125.455 186.542 126.622C185.281 126.622 184.02 126.622 182.778 126.622V130.216C182.815 130.518 185.977 130.386 186.542 130.386C186.542 130.932 186.41 133.83 186.711 133.868H190.024C190.024 132.701 190.024 131.534 190.024 130.386C192.433 130.386 194.861 130.386 197.27 130.386C197.27 131.534 197.27 132.701 197.27 133.868C196.122 133.886 194.955 133.868 193.788 133.868V141.113C194.936 141.113 196.103 141.094 197.27 141.113C197.27 142.374 197.27 143.635 197.27 144.877C198.531 144.877 199.792 144.877 201.035 144.877C201.035 146.025 201.035 147.192 201.035 148.359H204.347C204.648 148.321 204.498 145.423 204.517 144.877C205.778 144.877 207.039 144.877 208.281 144.877C208.337 149.695 208.243 154.551 208.281 159.369H204.517V166.615H201.035V170.096H197.44L197.27 166.615H193.788V173.86C192.527 173.86 191.266 173.86 190.024 173.86C190.024 172.599 190.024 171.338 190.024 170.096C188.876 170.096 187.709 170.115 186.542 170.096C186.542 168.948 186.542 167.781 186.542 166.615H182.778V170.096C184.039 170.096 185.3 170.077 186.542 170.096C186.561 171.357 186.542 172.618 186.542 173.86C187.69 173.86 188.857 173.86 190.024 173.86C190.024 175.008 190.024 176.175 190.024 177.342H164.803V181.106H157.557V184.588H153.792V188.352C152.644 188.352 151.477 188.352 150.31 188.352C150.31 187.787 150.442 184.625 150.141 184.588H146.546C146.546 185.849 146.546 187.11 146.546 188.352C145.398 188.352 144.231 188.352 143.064 188.352V199.079H146.546C146.565 195.503 146.508 191.928 146.546 188.352C147.807 188.352 149.068 188.352 150.31 188.352C150.31 189.5 150.31 190.667 150.31 191.834H157.557V199.079C156.296 199.079 155.035 199.079 153.792 199.079C153.792 197.931 153.792 196.764 153.792 195.598H150.31V199.079C151.458 199.079 152.625 199.079 153.792 199.079C153.792 200.34 153.792 201.601 153.792 202.843H150.31V206.325H146.546V202.843H139.3V195.598H135.818C135.818 194.355 135.818 193.076 135.818 191.834C136.966 191.834 138.133 191.834 139.3 191.834V188.521C139.262 188.22 136.364 188.352 135.818 188.352C135.818 187.787 135.949 184.625 135.648 184.588H132.053C132.053 185.849 132.053 187.11 132.053 188.352C130.905 188.352 129.738 188.352 128.571 188.352V184.588H124.807V181.106H121.325V177.342H117.561C117.58 174.933 117.542 172.505 117.561 170.096C118.822 170.096 120.083 170.096 121.325 170.096V166.615H117.561C117.561 167.763 117.561 168.929 117.561 170.096C116.413 170.096 115.246 170.096 114.079 170.096V166.615H110.314V162.851H106.832V159.369H103.068V152.123C101.92 152.123 100.753 152.142 99.5861 152.123C99.6238 149.714 99.5673 147.286 99.5861 144.877H95.8218V152.123C97.0828 152.123 98.3439 152.104 99.5861 152.123C99.5861 153.271 99.5861 154.438 99.5861 155.605H92.3398V152.123H85.0935V148.359H77.8472C77.8472 147.211 77.8472 146.044 77.8472 144.877C78.9953 144.877 80.1622 144.877 81.3292 144.877V141.283C81.2915 140.982 78.393 141.113 77.8472 141.113C77.8472 140.568 77.9789 137.669 77.6778 137.632H74.0828C74.0828 138.798 74.0828 139.965 74.0828 141.113C72.9347 141.113 71.7678 141.113 70.6008 141.113V137.632H63.3545V130.386H45.0976V126.622C43.9495 126.622 42.7825 126.641 41.6156 126.622C41.6156 125.474 41.6156 124.307 41.6156 123.14H37.8513V126.622C39.1123 126.622 40.3734 126.603 41.6156 126.622C41.6156 127.883 41.6156 129.144 41.6156 130.386H34.3693V123.14C31.9601 123.14 29.5321 123.14 27.1229 123.14C27.1606 120.731 27.1041 118.303 27.1229 115.894C25.8619 115.894 24.6008 115.894 23.3586 115.894C23.3586 113.485 23.3586 111.058 23.3586 108.649H20.046C19.6884 108.705 19.8954 115.142 19.8766 115.894C18.6156 115.894 17.3545 115.894 16.1123 115.894C16.1123 112.224 16.1123 108.555 16.1123 104.885C17.3734 104.866 18.6344 104.885 19.8766 104.885C19.8766 100.067 19.8766 95.211 19.8766 90.3931C21.0247 90.3931 22.1917 90.3931 23.3586 90.3931V97.6388H27.1229C27.1229 98.881 27.1229 100.161 27.1229 101.403C25.8619 101.403 24.6008 101.403 23.3586 101.403V104.885H27.1229C27.1229 103.737 27.1229 102.57 27.1229 101.403C28.2711 101.403 29.438 101.403 30.6049 101.403C30.6049 102.551 30.6049 103.718 30.6049 104.885H37.8513V101.403C35.4421 101.403 33.0141 101.403 30.6049 101.403C30.5673 98.9939 30.6049 96.5661 30.6049 94.1571C31.866 94.1759 33.127 94.1571 34.3693 94.1571V97.6388C36.7784 97.6577 39.2064 97.6012 41.6156 97.6388C41.6532 100.048 41.5968 102.476 41.6156 104.885C44.0247 104.885 46.4527 104.885 48.8619 104.885C48.8619 105.449 48.7301 108.611 49.0313 108.649H52.3439C52.3439 107.388 52.3439 106.127 52.3439 104.885C53.6049 104.885 54.866 104.885 56.1082 104.885C56.1082 105.637 55.92 112.074 56.2776 112.13H59.5902C59.609 109.721 59.5526 107.294 59.5902 104.885C60.8513 104.885 62.1123 104.885 63.3545 104.885C63.3545 103.737 63.3545 102.57 63.3545 101.403C63.9004 101.403 66.7989 101.535 66.8365 101.233V97.6388C65.6696 97.6388 64.5026 97.6577 63.3545 97.6388C63.3545 95.2299 63.3545 92.8021 63.3545 90.3931C64.5026 90.3931 65.6696 90.3931 66.8365 90.3931C66.8365 91.654 66.8365 92.915 66.8365 94.1571H70.6008V101.403C71.749 101.403 72.9159 101.384 74.0828 101.403C74.0828 102.551 74.0828 103.718 74.0828 104.885H77.8472V101.403C76.5861 101.403 75.3251 101.422 74.0828 101.403C74.0452 97.7329 74.0828 94.063 74.0828 90.3931C75.3439 90.3931 76.6049 90.3931 77.8472 90.3931C77.8472 89.2451 77.8472 88.0782 77.8472 86.9114C78.9953 86.9114 80.1622 86.9114 81.3292 86.9114V90.3931C82.5714 90.3931 83.8513 90.3743 85.0935 90.3931C85.0935 91.654 85.0935 92.915 85.0935 94.1571H88.5755V90.3931C87.4274 90.3931 86.2604 90.4119 85.0935 90.3931V90.4119ZM103.068 83.1662H99.5861V86.949H103.068V83.1662ZM81.3292 94.1759H77.8472V97.6576H81.3292V94.1759ZM66.8365 108.667C66.2907 108.667 63.3922 108.536 63.3545 108.837V112.149C64.5215 112.149 65.6884 112.13 66.8365 112.149C66.8365 113.41 66.8365 114.671 66.8365 115.913H70.6008V112.149C69.3398 112.149 68.0787 112.168 66.8365 112.149C66.8365 111.001 66.8365 109.834 66.8365 108.667C68.0976 108.649 69.3586 108.667 70.6008 108.667V104.903H66.8365C66.8365 106.164 66.8365 107.425 66.8365 108.667ZM37.8513 112.149C37.8513 111.001 37.8513 109.834 37.8513 108.667H34.3693V112.149C35.5174 112.149 36.6843 112.13 37.8513 112.149C37.8701 113.41 37.8513 114.671 37.8513 115.913C39.1123 115.913 40.3734 115.894 41.6156 115.913C41.6156 117.061 41.6156 118.228 41.6156 119.395C42.7637 119.395 43.9306 119.376 45.0976 119.395C45.1164 120.656 45.0976 121.917 45.0976 123.159C46.3586 123.159 47.6197 123.14 48.8619 123.159C48.8619 124.307 48.8619 125.474 48.8619 126.641H52.3439V123.159C51.1958 123.159 50.0288 123.178 48.8619 123.159C48.8431 121.898 48.8619 120.637 48.8619 119.395C47.6008 119.395 46.3398 119.414 45.0976 119.395C45.0976 118.247 45.0976 117.08 45.0976 115.913C43.9495 115.913 42.7825 115.932 41.6156 115.913C41.5968 114.652 41.6156 113.391 41.6156 112.149C40.3545 112.149 39.0935 112.168 37.8513 112.149ZM34.3693 115.913H30.5861V119.395H34.3693V115.913ZM56.1082 115.913H52.3251V119.395H56.1082V115.913ZM63.3545 115.913H59.5714V119.395H63.3545V115.913ZM157.538 119.395C156.277 119.395 155.016 119.395 153.774 119.395V126.641H157.538C157.557 124.232 157.5 121.804 157.538 119.395C161.114 119.357 164.69 119.414 168.266 119.395V115.913H157.538C157.538 117.061 157.538 118.228 157.538 119.395ZM63.3545 123.159H59.5714V126.641H63.3545V123.159ZM161.02 123.159V130.405H168.266V126.641H164.784V123.159H161.02ZM175.512 126.641H172.03V133.886H175.512V126.641ZM128.553 137.65C128.534 136.389 128.553 135.129 128.553 133.886H124.788V137.65C126.049 137.65 127.31 137.632 128.553 137.65C128.553 138.798 128.553 139.965 128.553 141.132H132.035V137.65C130.886 137.65 129.72 137.669 128.553 137.65ZM168.266 133.886H164.784V137.669H168.266V133.886ZM179.277 137.65C178.712 137.65 175.55 137.519 175.512 137.82V141.132C176.774 141.132 178.035 141.132 179.277 141.132C179.277 142.393 179.277 143.654 179.277 144.896H182.759V148.378H186.523V141.132C184.114 141.113 181.686 141.151 179.277 141.132C179.277 139.984 179.277 138.817 179.277 137.65C180.425 137.65 181.592 137.65 182.759 137.65V133.886H179.277C179.277 135.147 179.277 136.408 179.277 137.65ZM139.281 137.65H135.799V141.132H139.281V137.65ZM161.02 144.896C161.02 143.635 161.02 142.374 161.02 141.132H157.538V144.896C158.686 144.896 159.853 144.896 161.02 144.896C161.076 149.714 160.85 154.57 161.189 159.388H164.784C164.822 154.551 164.728 149.714 164.784 144.896C167.193 144.896 169.621 144.859 172.03 144.896C172.049 146.044 172.03 147.211 172.03 148.378C173.179 148.378 174.346 148.359 175.512 148.378C175.531 149.639 175.512 150.9 175.512 152.142C176.774 152.142 178.035 152.123 179.277 152.142C179.277 153.29 179.277 154.457 179.277 155.624C178.016 155.642 176.755 155.624 175.512 155.624V159.218C175.55 159.519 178.712 159.369 179.277 159.388C179.277 160.536 179.277 161.703 179.277 162.869H182.759V159.388C181.611 159.388 180.444 159.406 179.277 159.388C179.277 158.127 179.277 156.866 179.277 155.624C179.823 155.624 182.721 155.755 182.759 155.454V152.142C181.592 152.142 180.425 152.161 179.277 152.142C179.277 150.881 179.277 149.62 179.277 148.378C178.016 148.378 176.755 148.397 175.512 148.378C175.512 147.23 175.512 146.063 175.512 144.896C174.364 144.896 173.197 144.896 172.03 144.896C172.012 143.635 172.03 142.374 172.03 141.132H164.784C164.784 142.393 164.784 143.654 164.784 144.896C163.523 144.896 162.262 144.896 161.02 144.896ZM106.832 144.896H103.049V148.378H106.832V144.896ZM153.774 148.378C153.774 147.23 153.774 146.063 153.774 144.896H150.292V148.378C151.44 148.378 152.607 148.359 153.774 148.378C153.792 149.639 153.774 150.9 153.774 152.142H157.538V148.378C156.277 148.378 155.016 148.397 153.774 148.378ZM193.769 148.378C193.769 147.23 193.769 146.063 193.769 144.896H190.005V148.378C191.266 148.378 192.527 148.359 193.769 148.378C193.788 149.639 193.769 150.9 193.769 152.142H197.251V148.378C196.103 148.378 194.936 148.397 193.769 148.378ZM117.561 148.378H114.079V152.161H117.561V148.378ZM146.527 152.142C146.508 150.881 146.527 149.62 146.527 148.378H143.045V152.142C144.193 152.142 145.36 152.123 146.527 152.142C146.527 153.29 146.527 154.457 146.527 155.624C147.788 155.624 149.049 155.605 150.292 155.624C150.292 156.866 150.292 158.146 150.292 159.388C149.03 159.388 147.769 159.388 146.527 159.388V162.869H150.292C150.292 161.721 150.292 160.555 150.292 159.388C151.44 159.388 152.607 159.388 153.774 159.388C153.774 160.536 153.774 161.703 153.774 162.869H157.538V159.388C156.277 159.388 155.016 159.388 153.774 159.388C153.755 158.127 153.774 156.866 153.774 155.624C152.625 155.624 151.458 155.642 150.292 155.624C150.292 154.476 150.292 153.309 150.292 152.142C149.03 152.142 147.769 152.161 146.527 152.142ZM110.314 152.142H106.832V155.624H110.314V152.142ZM135.818 152.142H132.035V155.624H135.818V152.142ZM168.266 152.142V159.388H172.03V152.142H168.266ZM190.005 155.624C190.005 154.476 190.005 153.309 190.005 152.142H186.523V155.624C187.671 155.624 188.838 155.605 190.005 155.624C190.005 156.866 190.005 158.146 190.005 159.388C188.857 159.388 187.69 159.388 186.523 159.388V162.869H190.005C190.005 161.721 190.005 160.555 190.005 159.388C190.57 159.388 193.732 159.519 193.769 159.218V155.624C192.508 155.624 191.247 155.642 190.005 155.624ZM117.542 159.388C117.523 158.127 117.542 156.866 117.542 155.624H114.06V159.388C115.208 159.388 116.375 159.369 117.542 159.388C117.542 160.536 117.542 161.703 117.542 162.869H121.306V159.388C120.045 159.388 118.784 159.406 117.542 159.388ZM128.571 155.624H124.788V159.406H128.571V155.624ZM201.016 155.624H197.233V159.406H201.016V155.624ZM139.281 159.388H135.799V162.869H139.281V159.388ZM164.784 170.115C164.765 167.706 164.784 165.278 164.784 162.869H161.02V170.115C162.281 170.115 163.542 170.096 164.784 170.115C164.784 171.376 164.784 172.637 164.784 173.879H168.266V170.115C167.118 170.115 165.951 170.134 164.784 170.115ZM172.03 162.869H168.247V166.652H172.03V162.869ZM128.553 170.115C128.553 168.967 128.553 167.8 128.553 166.633H124.788V170.115C126.049 170.115 127.31 170.096 128.553 170.115C128.553 171.357 128.553 172.637 128.553 173.879C127.292 173.898 126.03 173.879 124.788 173.879V177.361H128.553C128.553 176.213 128.553 175.046 128.553 173.879C129.098 173.879 131.997 174.011 132.035 173.71V170.115C130.868 170.115 129.701 170.134 128.553 170.115ZM143.064 166.633H139.281V170.115H143.064V166.633ZM153.774 166.633H150.292V170.115H153.774V166.633ZM179.277 166.633H175.494V170.115H179.277V166.633ZM135.799 177.361C134.538 177.38 133.277 177.361 132.035 177.361V181.125H135.799C135.799 179.864 135.78 178.603 135.799 177.361C136.947 177.361 138.114 177.361 139.281 177.361V173.879H135.799C135.799 175.027 135.818 176.194 135.799 177.361ZM157.538 173.879H153.755V177.361H157.538V173.879ZM150.292 177.342H146.508V181.125H150.292V177.342ZM143.064 181.125H139.281V184.607H143.064V181.125Z" fill="#101E59"/>
<path d="M132.035 65.2117C132.035 68.7875 132.072 72.3633 132.035 75.9391C130.887 75.9391 129.72 75.9391 128.553 75.9391C128.515 72.3633 128.591 68.7875 128.553 65.2117C129.701 65.2117 130.868 65.2117 132.035 65.2117Z" fill="#101E59"/>
<path d="M121.307 72.4574C121.307 70.0484 121.307 67.6206 121.307 65.2117H124.789V72.4574C123.641 72.4574 122.474 72.4574 121.307 72.4574C121.307 73.6054 121.307 74.7723 121.307 75.9391C118.898 75.9391 116.47 75.9391 114.061 75.9391C114.061 74.7911 114.061 73.6243 114.061 72.4574C116.47 72.4386 118.898 72.4951 121.307 72.4574Z" fill="#101E59"/>
<path d="M114.06 75.9204C114.06 77.1814 114.06 78.4423 114.06 79.6844H117.542V83.1662C118.803 83.1662 120.064 83.1473 121.307 83.1662C121.307 85.5751 121.307 88.0029 121.307 90.4119C117.636 90.4119 113.966 90.4119 110.296 90.4119C110.296 89.2639 110.296 88.097 110.296 86.9302C111.557 86.9114 112.818 86.9302 114.06 86.9302V83.3355C114.023 83.0344 110.861 83.185 110.296 83.1662C110.296 80.7572 110.334 78.3294 110.296 75.9204C111.557 75.9204 112.818 75.9204 114.06 75.9204Z" fill="#101E59"/>
<path d="M99.5859 65.2117C100.734 65.2117 101.901 65.2117 103.068 65.2117C103.068 66.3597 103.068 67.5265 103.068 68.6934C101.92 68.6934 100.753 68.6934 99.5859 68.6934C99.5859 67.5454 99.5859 66.3785 99.5859 65.2117Z" fill="#101E59"/>
<path d="M128.552 75.9204C128.552 77.1814 128.552 78.4423 128.552 79.6844H131.865C132.166 79.6468 132.034 76.485 132.034 75.9204C133.295 75.9204 134.556 75.9204 135.799 75.9204C135.799 77.1814 135.799 78.4423 135.799 79.6844C136.947 79.6844 138.114 79.6844 139.281 79.6844C139.299 82.0934 139.262 84.5212 139.281 86.9302C138.132 86.9302 136.966 86.9302 135.799 86.9302V83.1662H132.015V86.9302C129.606 86.9302 127.178 86.9302 124.769 86.9302V83.1662C123.621 83.1662 122.454 83.185 121.287 83.1662C121.287 80.7572 121.287 78.3294 121.287 75.9204C123.696 75.9204 126.124 75.9204 128.533 75.9204H128.552Z" fill="#101E59"/>
<path d="M81.3281 65.2117C82.5892 65.2117 83.8502 65.2117 85.0924 65.2117C85.0924 66.3597 85.0736 67.5265 85.0924 68.6934C83.8314 68.6934 82.5704 68.6934 81.3281 68.6934C81.3281 67.5454 81.3281 66.3785 81.3281 65.2117Z" fill="#101E59"/>
<path d="M77.8476 65.2117C77.8476 66.3597 77.8476 67.5265 77.8476 68.6934C78.9957 68.6934 80.1626 68.6934 81.3296 68.6934C81.3296 69.9543 81.3296 71.2153 81.3296 72.4574C76.5112 72.4951 71.6552 72.401 66.8369 72.4574C66.8369 71.1965 66.8369 69.9355 66.8369 68.6934C69.2461 68.731 71.6741 68.6746 74.0832 68.6934C74.0832 67.5454 74.0832 66.3785 74.0832 65.2117C75.3443 65.2117 76.6053 65.2117 77.8476 65.2117Z" fill="#101E59"/>
<path d="M63.3535 65.2117C64.5016 65.2117 65.6686 65.2117 66.8355 65.2117C66.8355 66.3597 66.8355 67.5265 66.8355 68.6934C65.6874 68.6934 64.5205 68.6934 63.3535 68.6934C63.3535 67.5454 63.3723 66.3785 63.3535 65.2117Z" fill="#101E59"/>
<path d="M153.774 75.9204C153.774 77.1814 153.774 78.4423 153.774 79.6844C152.626 79.6844 151.459 79.6844 150.292 79.6844C150.292 78.4235 150.292 77.1625 150.292 75.9204C151.44 75.9204 152.607 75.9204 153.774 75.9204Z" fill="#101E59"/>
<path d="M135.799 188.371C135.799 189.519 135.799 190.685 135.799 191.852C134.537 191.852 133.276 191.852 132.034 191.852C132.034 190.704 132.034 189.537 132.034 188.371C133.295 188.371 134.556 188.371 135.799 188.371Z" fill="#101E59"/>
<path d="M164.783 75.9204C164.765 77.1814 164.783 78.4423 164.783 79.6844C162.374 79.6844 159.946 79.6844 157.537 79.6844C157.537 78.4235 157.537 77.1625 157.537 75.9204C159.946 75.9204 162.374 75.9204 164.783 75.9204Z" fill="#101E59"/>
<path d="M215.508 61.4478C216.656 61.4478 217.823 61.4478 218.99 61.4478C218.99 63.8567 218.99 66.2845 218.99 68.6935C217.842 68.6935 216.675 68.6935 215.508 68.6935C215.508 66.2845 215.508 63.8567 215.508 61.4478Z" fill="#101E59"/>
<path d="M150.292 61.4478C150.292 62.7087 150.292 63.9697 150.292 65.2118C149.031 65.2118 147.77 65.2118 146.527 65.2118C146.527 63.9508 146.527 62.6899 146.527 61.4478C147.788 61.4478 149.049 61.4478 150.292 61.4478Z" fill="#101E59"/>
<path d="M143.045 61.4478C143.045 62.7087 143.045 63.9697 143.045 65.2118C141.784 65.2118 140.522 65.2118 139.28 65.2118C139.28 63.9508 139.28 62.6899 139.28 61.4478C140.541 61.4478 141.802 61.4478 143.045 61.4478Z" fill="#101E59"/>
<path d="M222.755 83.1662C222.755 80.7572 222.755 78.3294 222.755 75.9204H226.237V83.1662C225.088 83.1662 223.921 83.1662 222.755 83.1662C222.755 84.4271 222.755 85.6881 222.755 86.9302C221.494 86.9302 220.232 86.9302 218.99 86.9302C218.99 85.6692 218.99 84.4083 218.99 83.1662C220.251 83.1662 221.512 83.1662 222.755 83.1662Z" fill="#101E59"/>
<path d="M59.5901 79.7031C59.5901 82.1121 59.5901 84.5399 59.5901 86.9489C58.442 86.9489 57.275 86.9489 56.1081 86.9489C56.1081 85.6879 56.1081 84.427 56.1081 83.1849H52.3438V79.7031C54.7529 79.7031 57.1809 79.7031 59.5901 79.7031Z" fill="#101E59"/>
<path d="M132.034 3.48172C127.215 3.42526 122.359 3.51936 117.541 3.48172V0H132.034C132.034 1.14803 132.034 2.31488 132.034 3.48172C132.598 3.48172 135.76 3.34998 135.798 3.6511V7.24575C134.537 7.24575 133.276 7.22693 132.034 7.24575C132.034 8.39377 132.034 9.56062 132.034 10.7275C133.295 10.7275 134.556 10.7275 135.798 10.7275V14.4915H132.034C132.034 13.2305 132.034 11.9696 132.034 10.7275C130.886 10.7275 129.719 10.7275 128.552 10.7275C128.514 13.1364 128.57 15.5642 128.552 17.9732H124.787C124.787 19.2153 124.787 20.4951 124.787 21.7372C123.639 21.7372 122.472 21.7372 121.305 21.7372C121.305 19.3283 121.305 16.9005 121.305 14.4915C122.453 14.4915 123.62 14.4915 124.787 14.4915C124.787 13.2305 124.787 11.9696 124.787 10.7275C126.048 10.7275 127.309 10.7275 128.552 10.7275C128.552 9.57944 128.552 8.41259 128.552 7.24575C129.7 7.24575 130.867 7.26457 132.034 7.24575C132.034 5.9848 132.034 4.72385 132.034 3.48172Z" fill="#101E59"/>
<path d="M66.8355 79.7031C66.8355 82.1121 66.8355 84.5399 66.8355 86.9489C65.6874 86.9489 64.5205 86.9489 63.3535 86.9489C63.3535 84.5399 63.3535 82.1121 63.3535 79.7031C64.5016 79.7031 65.6686 79.7031 66.8355 79.7031Z" fill="#101E59"/>
<path d="M157.538 79.7031C157.538 80.8512 157.538 82.018 157.538 83.1849H168.266C168.266 85.5938 168.266 88.0216 168.266 90.4306C167.118 90.4306 165.951 90.4306 164.784 90.4306C164.784 89.2826 164.784 88.1157 164.784 86.9489C161.114 86.9489 157.444 86.9489 153.773 86.9489C153.773 84.5399 153.773 82.1121 153.773 79.7031C155.034 79.7031 156.296 79.7031 157.538 79.7031Z" fill="#101E59"/>
<path d="M172.03 79.7031C173.178 79.7219 174.345 79.7031 175.512 79.7031V86.9489H182.758C182.758 88.0969 182.758 89.2637 182.758 90.4306C180.349 90.4306 177.921 90.4306 175.512 90.4306C175.512 92.8396 175.512 95.2674 175.512 97.6763C174.364 97.6763 173.197 97.6763 172.03 97.6763C172.03 98.9373 172.03 100.198 172.03 101.44C170.769 101.44 169.508 101.44 168.266 101.44C168.266 97.7704 168.266 94.1005 168.266 90.4306C169.527 90.4306 170.788 90.4306 172.03 90.4306C171.992 86.8548 172.068 83.2789 172.03 79.7031Z" fill="#101E59"/>
<path d="M99.5862 14.4915C99.5862 13.2305 99.5862 11.9696 99.5862 10.7274H95.8218V7.24571H92.3398V3.48169H99.5862V7.24571H103.068V10.7274C104.31 10.7274 105.59 10.7274 106.832 10.7274C106.832 11.9884 106.832 13.2493 106.832 14.4915C104.423 14.4538 101.995 14.4726 99.5862 14.4915Z" fill="#101E59"/>
<path d="M74.0836 61.4478C74.0836 62.7087 74.0836 63.9697 74.0836 65.2118C73.5377 65.2118 70.6392 65.3435 70.6016 65.0424V61.4478C71.7685 61.4478 72.9354 61.4478 74.0836 61.4478Z" fill="#101E59"/>
<path d="M208.262 57.9659C208.262 60.3749 208.262 62.8027 208.262 65.2116H211.744C211.744 67.6206 211.744 70.0484 211.744 72.4574C211.199 72.4574 208.3 72.3256 208.262 72.6268V75.9391C209.429 75.9391 210.596 75.9203 211.744 75.9391C211.744 78.3481 211.744 80.7759 211.744 83.1848C213.005 83.1848 214.266 83.1848 215.509 83.1848C215.509 84.4458 215.509 85.7067 215.509 86.9489C216.657 86.9489 217.824 86.9489 218.991 86.9489C218.991 88.0969 218.991 89.2637 218.991 90.4306C216.582 90.4494 214.154 90.393 211.744 90.4306C211.744 89.2826 211.744 88.1157 211.744 86.9489H201.016C201.016 88.0969 201.016 89.2637 201.016 90.4306C199.755 90.4306 198.494 90.4306 197.252 90.4306C197.271 92.8396 197.233 95.2674 197.252 97.6763C196.104 97.6763 194.937 97.6763 193.77 97.6763V101.44C191.361 101.44 188.933 101.44 186.523 101.44C186.523 99.0314 186.523 96.6036 186.523 94.1946C187.276 94.1946 193.713 94.3828 193.77 94.0252V90.4306C191.361 90.4306 188.933 90.4306 186.523 90.4306C186.523 88.0216 186.523 85.5938 186.523 83.1848C187.672 83.1848 188.838 83.1848 190.005 83.1848C190.005 84.4458 190.005 85.7067 190.005 86.9489H197.252V83.1848C194.843 83.1848 192.415 83.1848 190.005 83.1848C189.968 79.609 190.043 76.0332 190.005 72.4574C191.266 72.4574 192.528 72.4574 193.77 72.4574V79.7031H201.016V83.1848H208.262V79.7031H204.498V61.4476H201.016V57.9659C203.425 57.9847 205.853 57.9471 208.262 57.9659Z" fill="#101E59"/>
<path d="M146.527 86.9488C145.379 86.9488 144.212 86.9488 143.045 86.9488V83.1848H146.527C146.527 84.4458 146.527 85.7067 146.527 86.9488C148.936 86.9865 151.364 86.9488 153.773 86.9488C153.773 90.5247 153.773 94.1005 153.773 97.6763H161.02V94.1946H157.538V90.4306C159.947 90.4306 162.375 90.4306 164.784 90.4306C164.841 95.2485 164.784 100.104 164.784 104.922C163.523 104.922 162.262 104.922 161.02 104.922C161.02 103.774 161.02 102.607 161.02 101.44H150.291C150.291 102.588 150.291 103.755 150.291 104.922C147.882 104.884 145.454 104.941 143.045 104.922V108.686C141.803 108.686 140.523 108.686 139.281 108.686C139.243 106.277 139.3 103.849 139.281 101.44C138.133 101.44 136.966 101.44 135.799 101.44C135.799 99.0314 135.799 96.6036 135.799 94.1946C136.947 94.1946 138.114 94.1946 139.281 94.1946C139.281 95.3426 139.281 96.5095 139.281 97.6763H143.045V101.44H146.358C146.715 101.384 146.527 94.9474 146.527 94.1946C147.092 94.1946 150.254 94.3263 150.291 94.0252V90.4306C149.03 90.4306 147.769 90.4306 146.527 90.4306C146.527 89.2825 146.527 88.1157 146.527 86.9488Z" fill="#101E59"/>
<path d="M179.276 57.9661C180.425 57.9661 181.591 57.9661 182.758 57.9661C182.758 61.5419 182.758 65.1177 182.758 68.6935C181.61 68.6935 180.443 68.6935 179.276 68.6935C179.258 65.1177 179.314 61.5419 179.276 57.9661Z" fill="#101E59"/>
<path d="M27.1221 86.949C28.2702 86.9678 29.4371 86.949 30.6041 86.949C30.6041 89.358 30.6041 91.7857 30.6041 94.1947C29.456 94.1947 28.289 94.1947 27.1221 94.1947C27.1221 91.7857 27.1221 89.358 27.1221 86.949Z" fill="#101E59"/>
<path d="M37.8521 90.4117C36.704 90.4117 35.5371 90.4117 34.3701 90.4117V86.9299H37.8521C37.8521 88.078 37.8333 89.2448 37.8521 90.4117C41.5223 90.4493 45.1925 90.374 48.8627 90.4117V97.6574H52.3447C52.3259 100.066 52.3636 102.494 52.3447 104.903C51.1966 104.903 50.0297 104.903 48.8627 104.903C48.8627 103.755 48.8627 102.588 48.8627 101.421H45.0984V97.6574C43.9503 97.6574 42.7834 97.6574 41.6164 97.6574C41.6164 96.5094 41.6164 95.3425 41.6164 94.1757H37.8521C37.8521 92.9336 37.8709 91.6538 37.8521 90.4117Z" fill="#101E59"/>
<path d="M56.1081 86.9491C56.1081 88.0971 56.1081 89.264 56.1081 90.4308C54.847 90.4308 53.586 90.4308 52.3438 90.4308V87.1185C52.3814 86.8174 55.5434 86.9491 56.1081 86.9491Z" fill="#101E59"/>
<path d="M175.511 57.9661C175.511 59.1141 175.511 60.2809 175.511 61.4478H172.198C171.897 61.4102 172.048 58.5118 172.029 57.9661C173.177 57.9661 174.344 57.9661 175.511 57.9661Z" fill="#101E59"/>
<path d="M63.3542 86.949C63.3542 88.097 63.3542 89.2638 63.3542 90.4307C62.0931 90.4307 60.8321 90.4307 59.5898 90.4307C59.5898 89.2827 59.5898 88.1158 59.5898 86.949C60.8509 86.949 62.1119 86.949 63.3542 86.949Z" fill="#101E59"/>
<path d="M143.044 57.9661C144.192 57.9661 145.359 57.9661 146.526 57.9661C146.526 59.1141 146.526 60.2809 146.526 61.4478C145.378 61.4478 144.211 61.4478 143.044 61.4478C143.044 60.2998 143.044 59.1329 143.044 57.9661Z" fill="#101E59"/>
<path d="M74.0832 86.949C74.0832 88.097 74.0832 89.2638 74.0832 90.4307C71.6741 90.4495 69.2461 90.4307 66.8369 90.4307C66.8369 89.2827 66.8369 88.1158 66.8369 86.949C69.2461 86.949 71.6741 86.949 74.0832 86.949Z" fill="#101E59"/>
<path d="M132.035 61.4478C130.887 61.4478 129.72 61.4478 128.553 61.4478V57.9661H132.035C132.035 59.1141 132.035 60.2809 132.035 61.4478C133.296 61.4666 134.557 61.4478 135.799 61.4478C135.799 62.7087 135.799 63.9697 135.799 65.2118C134.538 65.2118 133.277 65.2118 132.035 65.2118C132.035 63.9509 132.035 62.6899 132.035 61.4478Z" fill="#101E59"/>
<path d="M34.3701 57.9661C35.5182 57.9661 36.6852 57.9661 37.8521 57.9661C37.8521 59.1141 37.8333 60.2809 37.8521 61.4478C36.704 61.4478 35.5371 61.4478 34.3701 61.4478C34.3701 60.2998 34.3701 59.1329 34.3701 57.9661Z" fill="#101E59"/>
<path d="M135.817 86.949V90.4307H132.034V86.949C133.295 86.949 134.556 86.949 135.817 86.949Z" fill="#101E59"/>
<path d="M175.513 57.9662C175.513 57.4016 175.381 54.2398 175.682 54.2021H179.277C179.277 55.4631 179.277 56.724 179.277 57.9662C178.016 57.9662 176.755 57.9662 175.513 57.9662Z" fill="#101E59"/>
<path d="M211.744 50.7202C213.005 50.7202 214.266 50.7202 215.508 50.7202C215.508 54.296 215.508 57.8719 215.508 61.4477C214.247 61.4289 212.986 61.4477 211.744 61.4477V57.966C210.596 57.966 209.429 57.966 208.262 57.966C208.262 56.705 208.262 55.4441 208.262 54.2019C209.41 54.2019 210.577 54.2019 211.744 54.2019C211.744 53.0539 211.744 51.8871 211.744 50.7202Z" fill="#101E59"/>
<path d="M164.785 57.966C164.785 55.557 164.785 53.1292 164.785 50.7202H168.098L168.267 54.2019H172.031C172.031 55.4441 172.013 56.7238 172.031 57.966C169.622 57.966 167.194 57.9848 164.785 57.966Z" fill="#101E59"/>
<path d="M222.755 86.949C223.903 86.949 225.07 86.949 226.237 86.949V97.6764H230.002V115.932C228.741 115.932 227.48 115.932 226.237 115.932C226.237 114.671 226.237 113.41 226.237 112.168H222.755V108.686H218.991V115.932C221.4 115.913 223.828 115.951 226.237 115.932C226.294 120.75 226.2 125.606 226.237 130.423H218.991V133.905L222.755 134.075V137.669H218.972V141.151H211.726V144.915C210.578 144.915 209.411 144.915 208.244 144.915C208.244 144.35 208.376 141.189 208.074 141.151H204.48C204.48 142.412 204.498 143.673 204.48 144.915C203.331 144.915 202.164 144.915 200.998 144.915C200.979 143.654 200.998 142.393 200.998 141.151C199.736 141.151 198.475 141.17 197.233 141.151C197.214 138.742 197.233 136.314 197.233 133.905C198.494 133.886 199.755 133.905 200.998 133.905C200.998 132.757 200.979 131.59 200.998 130.423C202.146 130.423 203.313 130.423 204.48 130.423V126.659H200.998C200.998 127.92 201.016 129.181 200.998 130.423C199.736 130.423 198.475 130.423 197.233 130.423C197.233 129.163 197.233 127.902 197.233 126.659H193.751V123.178C191.342 123.178 188.914 123.197 186.505 123.178C186.505 121.917 186.505 120.656 186.505 119.414C187.653 119.414 188.82 119.414 189.987 119.414V116.101C189.949 115.8 187.051 115.951 186.505 115.932C186.505 114.671 186.505 113.41 186.505 112.168C188.914 112.149 191.342 112.187 193.751 112.168V115.932C194.899 115.932 196.066 115.932 197.233 115.932C197.233 117.08 197.233 118.247 197.233 119.414C198.494 119.414 199.755 119.395 200.998 119.414C200.998 120.675 200.998 121.936 200.998 123.178H204.48V119.414C203.331 119.414 202.164 119.433 200.998 119.414C200.998 118.266 200.998 117.099 200.998 115.932C202.146 115.932 203.313 115.932 204.48 115.932V112.168H200.998C200.998 113.429 200.998 114.69 200.998 115.932C199.755 115.932 198.475 115.932 197.233 115.932C197.196 113.523 197.252 111.095 197.233 108.686C193.657 108.686 190.081 108.686 186.505 108.686C186.505 107.425 186.505 106.164 186.505 104.922C191.323 104.922 196.179 104.922 200.998 104.922C200.998 106.183 200.998 107.444 200.998 108.686H208.244V112.168H211.726C211.726 113.429 211.726 114.69 211.726 115.932C211.18 115.932 208.281 115.8 208.244 116.101V119.414C209.411 119.414 210.578 119.414 211.726 119.414C211.726 123.084 211.726 126.754 211.726 130.423H215.49V123.178C216.638 123.178 217.805 123.178 218.972 123.178C218.972 124.326 218.972 125.493 218.972 126.659H222.736V123.178C221.475 123.178 220.214 123.178 218.972 123.178C218.953 121.917 218.972 120.656 218.972 119.414C216.563 119.395 214.135 119.451 211.726 119.414C211.726 118.266 211.726 117.099 211.726 115.932C212.987 115.913 214.248 115.932 215.49 115.932V108.686H211.726V104.922C208.15 104.922 204.574 104.922 200.998 104.922C200.998 103.774 200.998 102.607 200.998 101.44C202.146 101.44 203.313 101.44 204.48 101.44V97.8458C204.442 97.5447 201.543 97.6764 200.998 97.6764C200.998 95.2675 200.96 92.8397 200.998 90.4307C202.146 90.4307 203.313 90.4307 204.48 90.4307V94.1947C205.722 94.1947 207.002 94.1947 208.244 94.1947C208.244 95.3427 208.244 96.5096 208.244 97.6764C209.392 97.6764 210.559 97.6576 211.726 97.6764C211.726 98.9374 211.726 100.198 211.726 101.44C212.987 101.44 214.248 101.44 215.49 101.44C215.49 101.986 215.358 104.885 215.66 104.922H218.972C218.972 103.755 218.972 102.588 218.972 101.44C220.233 101.44 221.494 101.44 222.736 101.44C222.736 102.588 222.736 103.755 222.736 104.922H226.218V101.44C225.07 101.44 223.903 101.44 222.736 101.44C222.699 99.0315 222.755 96.6037 222.736 94.1947C221.475 94.1947 220.214 94.1947 218.972 94.1947C218.972 92.9338 218.972 91.6728 218.972 90.4307C220.233 90.4307 221.494 90.4307 222.736 90.4307C222.736 89.2827 222.736 88.1158 222.736 86.949H222.755ZM208.263 133.886H204.48V137.669H208.263V133.886ZM215.509 133.886H211.726V137.669H215.509V133.886Z" fill="#101E59"/>
<path d="M146.527 50.7202C147.788 50.7202 149.049 50.7202 150.292 50.7202C150.292 51.8682 150.292 53.0351 150.292 54.2019C149.031 54.1831 147.77 54.2019 146.527 54.2019C146.527 53.0539 146.527 51.8871 146.527 50.7202Z" fill="#101E59"/>
<path d="M59.5905 90.4119C59.5905 92.8208 59.5905 95.2486 59.5905 97.6576C60.8516 97.6576 62.1126 97.6388 63.3548 97.6576C63.3548 98.9186 63.3548 100.18 63.3548 101.422C62.0938 101.44 60.8328 101.422 59.5905 101.422C59.5905 102.57 59.5905 103.737 59.5905 104.903C58.4424 104.903 57.2755 104.903 56.1085 104.903C56.0709 100.085 56.1085 95.2298 56.1085 90.4119C57.2566 90.4119 58.4236 90.4119 59.5905 90.4119Z" fill="#101E59"/>
<path d="M110.296 7.24571C110.315 5.98477 110.296 4.72382 110.296 3.48169H113.891C114.192 3.51933 114.041 6.68111 114.06 7.24571C112.818 7.24571 111.538 7.24571 110.296 7.24571Z" fill="#101E59"/>
<path d="M77.8473 50.7202C78.9954 50.7202 80.1624 50.7202 81.3293 50.7202C81.3293 55.5382 81.3293 60.3938 81.3293 65.2117C80.1812 65.2117 79.0143 65.2117 77.8473 65.2117C77.8285 63.9508 77.8473 62.6898 77.8473 61.4477C76.5863 61.4477 75.3252 61.4477 74.083 61.4477C74.083 60.2997 74.083 59.1328 74.083 57.966C75.3441 57.966 76.6051 57.966 77.8473 57.966C77.8285 55.557 77.8662 53.1292 77.8473 50.7202Z" fill="#101E59"/>
<path d="M110.294 90.4119C110.294 90.9765 110.426 94.1382 110.125 94.1759H106.812C106.812 92.9149 106.812 91.654 106.812 90.4119C107.961 90.4119 109.128 90.4119 110.294 90.4119Z" fill="#101E59"/>
<path d="M128.553 94.1947C127.292 94.1759 126.031 94.1947 124.789 94.1947V90.4307H128.553C128.553 91.6916 128.553 92.9526 128.553 94.1947C129.702 94.1947 130.868 94.1947 132.035 94.1947C132.035 96.6037 132.035 99.0315 132.035 101.44C130.887 101.44 129.72 101.44 128.553 101.44C128.553 99.0315 128.572 96.6037 128.553 94.1947Z" fill="#101E59"/>
<path d="M146.527 90.4119C146.527 91.6729 146.527 92.9338 146.527 94.176C144.117 94.1948 141.689 94.1383 139.28 94.176C139.28 92.915 139.28 91.6541 139.28 90.4119C141.689 90.4307 144.117 90.3931 146.527 90.4119Z" fill="#101E59"/>
<path d="M52.343 50.7201C56.0132 50.7577 59.6834 50.6825 63.3536 50.7201C63.3536 51.8681 63.3348 53.035 63.3536 54.2018C64.5018 54.2018 65.6687 54.2018 66.8356 54.2018V57.9658H63.3536C63.3536 56.7049 63.3725 55.4439 63.3536 54.2018C62.0926 54.2018 60.8315 54.2018 59.5893 54.2018V61.4476H63.3536C63.3536 62.6897 63.3348 63.9695 63.3536 65.2116C60.9445 65.174 58.5165 65.2304 56.1073 65.2116C56.1261 67.6206 56.0885 70.0484 56.1073 72.4573C54.8651 72.4573 53.5852 72.4573 52.343 72.4573C52.343 73.6054 52.343 74.7722 52.343 75.9391C51.1949 75.9391 50.0279 75.9202 48.861 75.9391C48.8422 77.2 48.861 78.461 48.861 79.7031H45.0967V75.9391C46.3577 75.9391 47.6188 75.9579 48.861 75.9391C48.861 74.791 48.861 73.6242 48.861 72.4573C50.0091 72.4573 51.1761 72.4573 52.343 72.4573C52.3806 70.0484 52.3242 67.6206 52.343 65.2116H48.861C48.861 63.9695 48.8798 62.6897 48.861 61.4476C51.2702 61.4287 53.6982 61.4664 56.1073 61.4476V54.2018H52.343C52.343 53.0538 52.343 51.8869 52.343 50.7201Z" fill="#101E59"/>
<path d="M37.8506 61.4477C39.1116 61.4477 40.3727 61.4477 41.6149 61.4477V50.7202H45.0969V57.966H48.8612C48.8612 59.114 48.8424 60.2808 48.8612 61.4477C47.6002 61.4477 46.3391 61.4477 45.0969 61.4477V65.2117H37.8506C37.8506 63.9508 37.8694 62.6898 37.8506 61.4477Z" fill="#101E59"/>
<path d="M201.017 46.9561C204.593 46.9561 208.169 46.9561 211.745 46.9561C211.745 48.217 211.745 49.478 211.745 50.7201C210.597 50.7201 209.43 50.7201 208.263 50.7201C208.263 51.8681 208.263 53.035 208.263 54.2018C205.854 54.2394 203.426 54.183 201.017 54.2018C201.017 51.7928 201.017 49.365 201.017 46.9561Z" fill="#101E59"/>
<path d="M186.523 90.4119C186.523 91.6728 186.523 92.9338 186.523 94.1759C185.262 94.1759 184.001 94.1759 182.759 94.1759C182.759 92.9338 182.759 91.654 182.759 90.4119C184.02 90.4119 185.281 90.4119 186.523 90.4119Z" fill="#101E59"/>
<path d="M157.538 46.9561C158.686 46.9561 159.853 46.9561 161.02 46.9561V57.9658C162.281 57.9658 163.542 57.9658 164.785 57.9658C164.785 59.1139 164.785 60.2807 164.785 61.4476C165.933 61.4476 167.1 61.4476 168.267 61.4476V68.6933H164.785C164.785 66.2843 164.785 63.8565 164.785 61.4476C163.524 61.4476 162.263 61.4476 161.02 61.4476V65.2116C159.872 65.2116 158.705 65.2116 157.538 65.2116C157.538 63.9506 157.538 62.6897 157.538 61.4476C155.129 61.4476 152.701 61.4476 150.292 61.4476C150.292 59.0386 150.33 56.6108 150.292 54.2018C151.44 54.2018 152.607 54.2018 153.774 54.2018V57.9658H157.538C157.538 54.2959 157.538 50.626 157.538 46.9561Z" fill="#101E59"/>
<path d="M77.8473 141.132C77.8473 142.393 77.8473 143.654 77.8473 144.896C76.5863 144.896 75.3252 144.896 74.083 144.896C74.083 143.635 74.083 142.374 74.083 141.132C75.3441 141.132 76.6051 141.132 77.8473 141.132Z" fill="#101E59"/>
<path d="M211.744 90.4119C211.744 91.6728 211.744 92.9338 211.744 94.1759C210.596 94.1759 209.429 94.1759 208.262 94.1759C208.262 92.9149 208.262 91.654 208.262 90.4119C209.41 90.4119 210.577 90.4119 211.744 90.4119Z" fill="#101E59"/>
<path d="M74.0814 50.7201C74.0814 50.1555 73.9497 46.9937 74.2508 46.9561H77.8457C77.8457 48.217 77.8457 49.478 77.8457 50.7201C76.5847 50.7201 75.3237 50.7201 74.0814 50.7201Z" fill="#101E59"/>
<path d="M5.38346 94.1948C5.38346 95.3429 5.38346 96.5097 5.38346 97.6766C4.81881 97.6766 1.65678 97.8083 1.61914 97.5072V94.1948C2.88019 94.1948 4.14124 94.1948 5.38346 94.1948Z" fill="#101E59"/>
<path d="M37.8521 46.9561C37.8521 49.365 37.8521 51.7928 37.8521 54.2018C36.704 54.2018 35.5371 54.2018 34.3701 54.2018C34.3701 51.7928 34.3701 49.365 34.3701 46.9561C35.5182 46.9561 36.6852 46.9749 37.8521 46.9561Z" fill="#101E59"/>
<path d="M110.294 7.24573C110.294 8.39376 110.294 9.5606 110.294 10.7275C109.146 10.7275 107.979 10.7275 106.812 10.7275C106.812 9.57942 106.812 8.41258 106.812 7.24573C107.961 7.24573 109.128 7.24573 110.294 7.24573Z" fill="#101E59"/>
<path d="M114.059 104.903C115.207 104.903 116.374 104.903 117.541 104.903V97.6577H114.059V94.176H121.305V97.6577H124.787C124.787 98.9187 124.787 100.18 124.787 101.422C123.639 101.422 122.472 101.422 121.305 101.422V104.903H124.787C124.787 103.755 124.787 102.589 124.787 101.422C126.048 101.422 127.309 101.422 128.551 101.422C128.551 106.24 128.551 111.095 128.551 115.913H132.033V119.395H135.798V123.159C136.946 123.159 138.113 123.14 139.28 123.159C139.28 124.307 139.28 125.474 139.28 126.641C138.132 126.641 136.965 126.641 135.798 126.641C135.798 127.902 135.817 129.163 135.798 130.405C134.537 130.405 133.276 130.405 132.033 130.405C132.015 129.144 132.033 127.883 132.033 126.641C128.457 126.641 124.881 126.641 121.305 126.641C121.305 124.232 121.343 121.804 121.305 119.395C122.453 119.395 123.62 119.395 124.787 119.395C124.787 120.656 124.787 121.917 124.787 123.159H128.551V119.395C127.29 119.395 126.029 119.395 124.787 119.395C124.768 116.986 124.787 114.558 124.787 112.149H121.305V108.668H117.541C117.541 111.076 117.541 113.504 117.541 115.913C113.965 115.876 110.389 115.951 106.812 115.913V104.903C107.961 104.903 109.128 104.903 110.294 104.903C110.294 105.656 110.106 112.093 110.464 112.149H114.059C114.04 109.74 114.078 107.312 114.059 104.903Z" fill="#101E59"/>
<path d="M201.016 43.4744C201.016 44.6224 201.016 45.7892 201.016 46.9561C199.755 46.9561 198.494 46.9561 197.252 46.9561C197.252 45.8081 197.252 44.6412 197.252 43.4744C198.513 43.4744 199.774 43.4932 201.016 43.4744Z" fill="#101E59"/>
<path d="M182.758 94.1948C182.758 95.3429 182.758 96.5097 182.758 97.6766C181.61 97.6766 180.443 97.6766 179.276 97.6766C179.276 96.5285 179.276 95.3617 179.276 94.1948C180.424 94.1948 181.591 94.1948 182.758 94.1948Z" fill="#101E59"/>
<path d="M157.538 43.4744C157.538 44.6224 157.538 45.7892 157.538 46.9561C156.973 46.9561 153.811 47.0878 153.773 46.7867V43.4744C155.034 43.4744 156.296 43.4744 157.538 43.4744Z" fill="#101E59"/>
<path d="M146.526 46.9561C146.526 45.8081 146.526 44.6412 146.526 43.4744H150.29V46.9561C149.029 46.9561 147.768 46.9561 146.526 46.9561C146.526 48.1982 146.526 49.478 146.526 50.7201C145.378 50.7201 144.211 50.7201 143.044 50.7201C143.044 49.4592 143.044 48.1982 143.044 46.9561C144.192 46.9561 145.359 46.9561 146.526 46.9561Z" fill="#101E59"/>
<path d="M218.971 94.1946C218.971 96.6036 219.009 99.0314 218.971 101.44C217.823 101.44 216.656 101.44 215.489 101.44C215.47 100.179 215.489 98.9185 215.489 97.6764C214.228 97.6764 212.967 97.6952 211.725 97.6764C211.725 96.5283 211.725 95.3615 211.725 94.1946C214.134 94.1946 216.562 94.1758 218.971 94.1946Z" fill="#101E59"/>
<path d="M114.061 7.24573C115.209 7.24573 116.376 7.24573 117.543 7.24573C117.543 8.39376 117.524 9.5606 117.543 10.7275C116.394 10.7275 115.227 10.7275 114.061 10.7275C114.061 9.57942 114.079 8.41258 114.061 7.24573Z" fill="#101E59"/>
<path d="M8.86579 97.6577C8.86579 98.9187 8.86579 100.18 8.86579 101.422C7.71767 101.422 6.55073 101.422 5.38379 101.422C5.38379 100.161 5.38379 98.8998 5.38379 97.6577C6.53191 97.6577 7.69885 97.6577 8.86579 97.6577Z" fill="#101E59"/>
<path d="M81.3281 43.4744C82.5892 43.4932 83.8502 43.4744 85.0924 43.4744C85.0924 44.6224 85.0924 45.7892 85.0924 46.9561C83.8314 46.9561 82.5704 46.9561 81.3281 46.9561C81.3281 45.8081 81.3281 44.6412 81.3281 43.4744Z" fill="#101E59"/>
<path d="M201.017 39.7104C202.165 39.7104 203.332 39.7104 204.499 39.7104V43.3051C204.461 43.6062 201.562 43.4557 201.017 43.4745C201.017 42.2135 201.017 40.9526 201.017 39.7104Z" fill="#101E59"/>
<path d="M143.045 39.7104C143.045 42.1194 143.045 44.5472 143.045 46.9562C142.48 46.9562 139.318 46.8245 139.28 47.1256V50.7202C140.541 50.7202 141.802 50.7202 143.045 50.7202C143.045 53.1292 143.045 55.557 143.045 57.966C141.784 57.9471 140.523 57.966 139.28 57.966V54.2019H135.798C135.817 50.6261 135.78 47.0503 135.798 43.4745C136.947 43.4745 138.113 43.4745 139.28 43.4745C139.28 42.2135 139.28 40.9526 139.28 39.7104C140.541 39.7104 141.802 39.7104 143.045 39.7104Z" fill="#101E59"/>
<path d="M135.799 39.7103C135.799 40.9713 135.799 42.2322 135.799 43.4744C134.537 43.4744 133.276 43.4744 132.034 43.4744V39.8797C132.072 39.5786 135.234 39.7103 135.799 39.7103Z" fill="#101E59"/>
<path d="M92.3398 97.6577C93.488 97.6577 94.6549 97.6577 95.8218 97.6577C95.8218 100.067 95.8218 102.494 95.8218 104.903C94.6737 104.903 93.5068 104.903 92.3398 104.903C92.3398 102.494 92.3398 100.067 92.3398 97.6577Z" fill="#101E59"/>
<path d="M99.5856 104.903C99.5668 102.494 99.6044 100.067 99.5856 97.6577H103.068V104.903C101.919 104.903 100.753 104.903 99.5856 104.903C99.5856 106.164 99.5856 107.425 99.5856 108.667H103.068C103.068 112.243 103.068 115.819 103.068 119.395C100.658 119.395 98.2305 119.433 95.8213 119.395C95.8213 118.247 95.8213 117.08 95.8213 115.913C96.3859 115.913 99.548 116.045 99.5856 115.744V112.149C98.3246 112.149 97.0635 112.168 95.8213 112.149C95.8213 109.74 95.8213 107.312 95.8213 104.903C97.0823 104.903 98.3434 104.903 99.5856 104.903Z" fill="#101E59"/>
<path d="M110.294 101.422C109.146 101.422 107.979 101.422 106.812 101.422V97.6577H110.294C110.294 98.9187 110.294 100.18 110.294 101.422C111.556 101.441 112.817 101.422 114.059 101.422C114.059 102.57 114.059 103.737 114.059 104.903C112.798 104.903 111.537 104.903 110.294 104.903C110.294 103.755 110.294 102.589 110.294 101.422Z" fill="#101E59"/>
<path d="M121.307 10.7275C121.307 10.1817 121.175 7.28337 121.476 7.24573H124.789C124.789 8.41258 124.789 9.57942 124.789 10.7275C123.641 10.7275 122.474 10.7275 121.307 10.7275Z" fill="#101E59"/>
<path d="M179.276 97.6577C179.276 98.8998 179.276 100.18 179.276 101.422C178.015 101.422 176.754 101.422 175.512 101.422C175.512 100.161 175.512 98.8998 175.512 97.6577C176.773 97.6577 178.034 97.6577 179.276 97.6577Z" fill="#101E59"/>
<path d="M45.0967 43.4745C46.3577 43.4745 47.6188 43.4745 48.861 43.4745V39.7104H52.343C52.3806 43.3804 52.3054 47.0503 52.343 50.7202C51.1949 50.7202 50.0279 50.7202 48.861 50.7202V46.9562H45.0967C45.0967 45.8082 45.0967 44.6413 45.0967 43.4745Z" fill="#101E59"/>
<path d="M201.016 97.6577C201.016 98.9187 201.016 100.18 201.016 101.422C199.755 101.422 198.494 101.422 197.252 101.422C197.252 100.161 197.252 98.8998 197.252 97.6577C198.494 97.6577 199.774 97.6577 201.016 97.6577Z" fill="#101E59"/>
<path d="M37.8521 43.4745C36.704 43.4745 35.5371 43.4745 34.3701 43.4745V39.7104H37.8521C37.8521 40.9714 37.8521 42.2323 37.8521 43.4745C39.1132 43.4745 40.3742 43.4745 41.6164 43.4745C41.6164 44.6225 41.6164 45.7894 41.6164 46.9562C40.3554 46.9562 39.0943 46.9374 37.8521 46.9562C37.8521 45.8082 37.8521 44.6413 37.8521 43.4745Z" fill="#101E59"/>
<path d="M197.252 36.2288C198.513 36.2288 199.774 36.2288 201.016 36.2288C201.016 37.3768 201.016 38.5436 201.016 39.7105C199.755 39.6917 198.494 39.7105 197.252 39.7105C197.252 38.5625 197.271 37.3956 197.252 36.2288Z" fill="#101E59"/>
<path d="M157.538 36.2288C157.538 37.3768 157.538 38.5436 157.538 39.7105C156.277 39.7105 155.016 39.7105 153.773 39.7105C153.773 38.5625 153.792 37.3956 153.773 36.2288C155.034 36.2288 156.296 36.2288 157.538 36.2288Z" fill="#101E59"/>
<path d="M135.798 39.7105C135.798 39.1647 135.666 36.2664 135.968 36.2288H139.28C139.28 37.3956 139.28 38.5625 139.28 39.7105C138.132 39.7105 136.965 39.7105 135.798 39.7105Z" fill="#101E59"/>
<path d="M103.049 36.2288C103.105 41.0467 103.011 45.9023 103.049 50.7203H106.813V57.966H110.295V65.2118H106.813V61.4477H103.049V54.202H92.3207V50.7203H88.5563C88.5752 53.1292 88.5375 55.557 88.5563 57.966C89.8174 57.9848 91.0784 57.966 92.3207 57.966C92.3207 59.114 92.3207 60.2809 92.3207 61.4477C94.7298 61.4665 97.1578 61.4477 99.567 61.4477C99.567 62.7087 99.567 63.9696 99.567 65.2118C98.3059 65.2118 97.0449 65.2118 95.8027 65.2118C95.8027 66.3598 95.8027 67.5266 95.8027 68.6935C94.6545 68.6935 93.4876 68.6935 92.3207 68.6935C92.3018 66.2845 92.3583 63.8567 92.3207 61.4477C91.0596 61.4477 89.7986 61.4477 88.5563 61.4477C88.5563 60.2997 88.5563 59.1328 88.5563 57.966C87.4082 57.966 86.2413 57.966 85.0743 57.966C85.0367 54.2961 85.112 50.6262 85.0743 46.9562C88.6504 46.9939 92.2266 46.9186 95.8027 46.9562C95.8027 48.2172 95.8027 49.4781 95.8027 50.7203H99.567V46.9562C98.3059 46.9562 97.0449 46.9562 95.8027 46.9562C95.8027 45.8082 95.8027 44.6414 95.8027 43.4745H99.567C99.567 41.0655 99.567 38.6377 99.567 36.2288C100.715 36.2288 101.882 36.2288 103.049 36.2288Z" fill="#101E59"/>
<path d="M186.523 32.4646C190.1 32.4834 193.676 32.4646 197.252 32.4646C197.252 33.7255 197.233 34.9865 197.252 36.2286C196.104 36.2286 194.937 36.2286 193.77 36.2286V46.9561C194.918 46.9561 196.085 46.9561 197.252 46.9561C197.233 48.217 197.252 49.478 197.252 50.7201H193.77C193.77 51.8681 193.77 53.035 193.77 54.2018C194.918 54.2207 196.085 54.2018 197.252 54.2018V61.4476C196.104 61.4476 194.937 61.4476 193.77 61.4476C193.77 62.7085 193.77 63.9695 193.77 65.2116C196.179 65.2304 198.607 65.1928 201.016 65.2116V75.9391H197.252V68.6933H193.77C193.77 67.5453 193.77 66.3785 193.77 65.2116C192.509 65.2116 191.248 65.2116 190.005 65.2116C190.005 63.9507 190.024 62.6897 190.005 61.4476C188.857 61.4476 187.69 61.4476 186.523 61.4476V57.9659H190.005C190.005 59.1139 189.987 60.2807 190.005 61.4476C191.248 61.4476 192.528 61.4476 193.77 61.4476C193.77 59.0386 193.732 56.6108 193.77 54.2018C192.509 54.183 191.248 54.2018 190.005 54.2018V36.2286H186.523C186.523 34.9865 186.523 33.7067 186.523 32.4646Z" fill="#101E59"/>
<path d="M175.512 101.422C175.512 102.57 175.512 103.737 175.512 104.903C174.364 104.903 173.197 104.903 172.03 104.903C172.03 103.755 172.03 102.588 172.03 101.422C173.178 101.422 174.345 101.422 175.512 101.422Z" fill="#101E59"/>
<path d="M150.292 32.4646C151.44 32.4646 152.607 32.4646 153.774 32.4646C153.774 33.7255 153.755 34.9865 153.774 36.2286C152.626 36.2286 151.459 36.2286 150.292 36.2286C150.292 34.9677 150.311 33.7067 150.292 32.4646Z" fill="#101E59"/>
<path d="M186.523 101.422C186.523 102.57 186.523 103.737 186.523 104.903C184.114 104.903 181.686 104.903 179.276 104.903C179.276 103.755 179.276 102.588 179.276 101.422C181.686 101.422 184.114 101.422 186.523 101.422Z" fill="#101E59"/>
<path d="M128.553 32.4646C128.553 36.1345 128.553 39.8044 128.553 43.4744H124.789V39.7103H121.307C121.307 43.3803 121.307 47.0502 121.307 50.7201C122.455 50.7389 123.622 50.7201 124.789 50.7201V61.4476H121.307C121.307 57.8718 121.307 54.2959 121.307 50.7201C120.065 50.7013 118.785 50.7201 117.543 50.7201V39.7103H114.061V36.2286H124.789C124.789 34.9677 124.789 33.7067 124.789 32.4646C126.031 32.4646 127.311 32.4646 128.553 32.4646Z" fill="#101E59"/>
<path d="M99.5858 32.4647C99.5858 33.7257 99.5858 34.9866 99.5858 36.2288H88.5752C88.5752 34.9866 88.594 33.7069 88.5752 32.4647C92.2454 32.4647 95.9156 32.4271 99.5858 32.4647Z" fill="#101E59"/>
<path d="M85.093 32.4646C85.0554 34.8736 85.1118 37.3014 85.093 39.7103H81.3287C81.3287 40.9525 81.3287 42.2322 81.3287 43.4744C80.1806 43.4556 79.0136 43.4744 77.8467 43.4744V32.4646C80.2558 32.4646 82.6838 32.4646 85.093 32.4646Z" fill="#101E59"/>
<path d="M161.019 10.7275C161.019 9.57942 161.019 8.41258 161.019 7.24573H164.783V10.7275C163.522 10.7275 162.261 10.7086 161.019 10.7275C161.019 11.9884 161.019 13.2493 161.019 14.4915C159.871 14.4915 158.704 14.4915 157.537 14.4915C157.537 13.2305 157.537 11.9696 157.537 10.7275C158.685 10.7275 159.852 10.7463 161.019 10.7275Z" fill="#101E59"/>
<path d="M92.3388 104.903C92.3388 107.312 92.3388 109.74 92.3388 112.149C93.4869 112.149 94.6538 112.13 95.8208 112.149C95.8208 113.41 95.8208 114.671 95.8208 115.913C95.2749 115.913 92.3764 115.781 92.3388 116.082V119.395C93.5057 119.395 94.6726 119.395 95.8208 119.395C95.8208 120.656 95.8208 121.917 95.8208 123.159C98.2299 123.159 100.658 123.159 103.067 123.159C103.067 124.307 103.067 125.474 103.067 126.641H106.831C106.831 129.05 106.831 131.477 106.831 133.886C105.57 133.886 104.309 133.886 103.067 133.886C103.067 132.738 103.067 131.571 103.067 130.405H99.5851V126.641H92.3388V123.159C91.0965 123.159 89.8167 123.159 88.5744 123.159C88.5744 121.898 88.5744 120.637 88.5744 119.395C86.1653 119.395 83.7373 119.395 81.3281 119.395C81.3281 118.247 81.3281 117.08 81.3281 115.913C83.7373 115.913 86.1653 115.913 88.5744 115.913V104.903C89.8355 104.903 91.0965 104.903 92.3388 104.903Z" fill="#101E59"/>
<path d="M66.8367 39.7103C68.0978 39.7103 69.3588 39.7103 70.601 39.7103V32.4646H74.083V43.4744C71.6739 43.4744 69.2459 43.4744 66.8367 43.4744C66.8367 44.6224 66.8367 45.7892 66.8367 46.9561C68.0978 46.9561 69.3588 46.9561 70.601 46.9561C70.601 48.217 70.601 49.478 70.601 50.7201C71.7491 50.7201 72.9161 50.7201 74.083 50.7201C74.0642 53.1291 74.083 55.5569 74.083 57.9659C72.9349 57.9659 71.768 57.9659 70.601 57.9659C70.601 55.5569 70.6199 53.1291 70.601 50.7201C69.34 50.7201 68.0789 50.7201 66.8367 50.7201C66.8367 49.4592 66.8367 48.1982 66.8367 46.9561C63.2794 46.9185 59.6657 47.1255 56.1084 46.7867V43.4744C59.6845 43.4744 63.2606 43.4744 66.8367 43.4744C66.8367 42.2134 66.8367 40.9525 66.8367 39.7103C65.6886 39.7103 64.5217 39.7103 63.3547 39.7103V36.2286H66.8367C66.8367 37.3767 66.8367 38.5435 66.8367 39.7103Z" fill="#101E59"/>
<path d="M66.8367 14.4914C66.8555 13.2305 66.8367 11.9695 66.8367 10.7274H70.601V14.4914C69.34 14.4914 68.0789 14.4726 66.8367 14.4914C66.8367 15.6395 66.8367 16.8063 66.8367 17.9732C65.6886 17.9732 64.5217 17.9732 63.3547 17.9732C63.3547 19.2341 63.3547 20.4951 63.3547 21.7372C64.5028 21.7372 65.6698 21.7372 66.8367 21.7372C66.8367 22.8852 66.8367 24.0521 66.8367 25.2189C65.6886 25.2189 64.5217 25.2189 63.3547 25.2189C63.3547 24.0709 63.3547 22.904 63.3547 21.7372C62.0937 21.7184 60.8326 21.7372 59.5904 21.7372C59.5904 20.4762 59.6092 19.2153 59.5904 17.9732C58.4423 17.9732 57.2753 17.9732 56.1084 17.9732V14.4914H59.5904C59.5904 15.6395 59.5716 16.8063 59.5904 17.9732C60.8326 17.9732 62.1125 17.9732 63.3547 17.9732C63.3547 16.8251 63.3547 15.6583 63.3547 14.4914C64.5028 14.4914 65.6698 14.5103 66.8367 14.4914Z" fill="#101E59"/>
<path d="M27.1227 46.9561C27.1227 42.1381 27.1227 37.2826 27.1227 32.4646H30.6047V46.9561C29.4566 46.9561 28.2897 46.9561 27.1227 46.9561C27.1227 48.217 27.1227 49.478 27.1227 50.7201C28.2709 50.7201 29.4378 50.7201 30.6047 50.7201C30.6047 51.8681 30.6047 53.035 30.6047 54.2018C31.847 54.2018 33.1268 54.2018 34.3691 54.2018C34.3691 55.4628 34.3691 56.7237 34.3691 57.9659C33.1268 57.9659 31.847 57.9659 30.6047 57.9659C30.6047 59.1139 30.6047 60.2807 30.6047 61.4476C29.4566 61.4476 28.2897 61.4476 27.1227 61.4476C27.0851 63.8566 27.1416 66.2844 27.1227 68.6933H23.3584V65.2116C22.2103 65.2116 21.0434 65.2116 19.8764 65.2116C19.8764 66.3596 19.8764 67.5265 19.8764 68.6933H16.1121V65.2116C17.3732 65.2116 18.6342 65.2116 19.8764 65.2116C19.9141 62.8026 19.8576 60.3748 19.8764 57.9659C18.6154 57.9659 17.3543 57.9659 16.1121 57.9659C16.1121 59.1139 16.1121 60.2807 16.1121 61.4476C13.7029 61.4664 11.275 61.41 8.86579 61.4476C8.86579 62.7085 8.86579 63.9695 8.86579 65.2116H12.6301V68.6933H5.38379V61.4476C6.53191 61.4476 7.69885 61.4476 8.86579 61.4476C8.86579 60.2996 8.86579 59.1327 8.86579 57.9659C11.275 57.9847 13.7029 57.947 16.1121 57.9659C16.1121 56.7049 16.1121 55.444 16.1121 54.2018H12.6301V50.7201H19.8764V54.2018H23.3584V61.4476C24.6195 61.4476 25.8805 61.4476 27.1227 61.4476C27.1227 60.2996 27.1227 59.1327 27.1227 57.9659C28.2709 57.9659 29.4378 57.9659 30.6047 57.9659C30.6047 56.7237 30.6047 55.444 30.6047 54.2018C29.4566 54.2018 28.2897 54.2018 27.1227 54.2018C27.1227 53.0538 27.1227 51.887 27.1227 50.7201C25.8617 50.7013 24.6006 50.7201 23.3584 50.7201C23.3584 49.4592 23.3772 48.1982 23.3584 46.9561C22.2103 46.9561 21.0434 46.9561 19.8764 46.9561V43.4744H23.3584C23.3584 44.6224 23.3396 45.7892 23.3584 46.9561C24.6006 46.9561 25.8805 46.9561 27.1227 46.9561Z" fill="#101E59"/>
<path d="M150.292 104.903C151.44 104.903 152.607 104.903 153.774 104.903C153.774 106.164 153.774 107.425 153.774 108.667C152.626 108.667 151.459 108.667 150.292 108.667C150.292 107.406 150.292 106.145 150.292 104.903Z" fill="#101E59"/>
<path d="M161.019 104.903C161.019 106.145 161.019 107.425 161.019 108.667C159.871 108.667 158.704 108.667 157.537 108.667C157.537 107.406 157.537 106.145 157.537 104.903C158.685 104.903 159.852 104.903 161.019 104.903Z" fill="#101E59"/>
<path d="M186.523 28.9832C186.523 30.1312 186.523 31.2981 186.523 32.4649C185.77 32.4649 179.333 32.6531 179.276 32.2955V28.9832C181.686 28.9644 184.114 29.0208 186.523 28.9832Z" fill="#101E59"/>
<path d="M168.265 32.4649C168.265 31.3169 168.265 30.15 168.265 28.9832H175.512V32.4649C173.103 32.4837 170.675 32.4272 168.265 32.4649C168.265 33.707 168.265 34.9868 168.265 36.2289C170.675 36.2289 173.103 36.2289 175.512 36.2289C175.512 38.6379 175.512 41.0657 175.512 43.4747C177.921 43.5123 180.349 43.4935 182.758 43.4747C182.758 42.2137 182.758 40.9528 182.758 39.7106H186.522V43.4747C185.261 43.4747 184 43.4747 182.758 43.4747C182.739 45.8836 182.72 48.3114 182.758 50.7204C184.019 50.7392 185.28 50.7204 186.522 50.7204V54.2021H182.758C182.758 53.0541 182.758 51.8872 182.758 50.7204C181.61 50.7204 180.443 50.7204 179.276 50.7204V46.9564C178.034 46.9564 176.754 46.9564 175.512 46.9564C175.512 48.2173 175.512 49.4783 175.512 50.7204H172.03V46.9564C173.178 46.9564 174.345 46.9564 175.512 46.9564C175.512 45.8083 175.512 44.6415 175.512 43.4747C174.364 43.4747 173.197 43.4747 172.03 43.4747V39.7106H168.265C168.265 38.5626 168.265 37.3958 168.265 36.2289C167.117 36.2289 165.95 36.2289 164.783 36.2289C164.765 38.6379 164.746 41.0657 164.783 43.4747C165.932 43.4747 167.098 43.4747 168.265 43.4747V46.9564H164.783C164.783 45.8083 164.783 44.6415 164.783 43.4747C162.374 43.437 159.946 43.4558 157.537 43.4747C157.537 42.2137 157.537 40.9528 157.537 39.7106C158.685 39.7106 159.852 39.7106 161.019 39.7106C161.019 38.5626 161.019 37.3958 161.019 36.2289C162.28 36.2289 163.541 36.2289 164.783 36.2289C164.783 34.968 164.783 33.707 164.783 32.4649C165.932 32.4649 167.098 32.4649 168.265 32.4649Z" fill="#101E59"/>
<path d="M121.305 10.7274C121.305 11.9884 121.305 13.2493 121.305 14.4914C120.044 14.4914 118.783 14.4914 117.541 14.4914C117.541 13.2305 117.56 11.9695 117.541 10.7274C118.802 10.7274 120.063 10.7274 121.305 10.7274Z" fill="#101E59"/>
<path d="M132.035 28.9832C132.035 30.1312 132.035 31.298 132.035 32.4649C130.887 32.4649 129.72 32.4649 128.553 32.4649C128.553 31.3169 128.553 30.15 128.553 28.9832C129.701 28.9832 130.868 28.9832 132.035 28.9832Z" fill="#101E59"/>
<path d="M124.788 28.9832C124.788 30.1312 124.788 31.298 124.788 32.4649C123.64 32.4649 122.473 32.4649 121.306 32.4649C121.306 31.3169 121.324 30.15 121.306 28.9832C122.454 28.9832 123.621 28.9832 124.788 28.9832Z" fill="#101E59"/>
<path d="M117.543 28.9832C117.543 29.5289 117.674 32.4272 117.373 32.4649H114.061C114.061 31.298 114.061 30.1312 114.061 28.9832C115.209 28.9832 116.376 28.9832 117.543 28.9832Z" fill="#101E59"/>
<path d="M106.832 28.9832C106.832 30.1312 106.832 31.298 106.832 32.4649H110.314V36.2289C107.905 36.2289 105.477 36.2289 103.068 36.2289C103.068 34.968 103.068 33.707 103.068 32.4649C101.92 32.4649 100.753 32.4649 99.5859 32.4649C99.5859 31.3169 99.5859 30.15 99.5859 28.9832C101.995 29.002 104.423 28.9832 106.832 28.9832Z" fill="#101E59"/>
<path d="M85.0928 32.4649C85.0928 31.3169 85.0928 30.15 85.0928 28.9832H88.4054C88.7065 29.0208 88.556 31.9191 88.5748 32.4649C87.4267 32.4649 86.2597 32.4649 85.0928 32.4649Z" fill="#101E59"/>
<path d="M77.8467 112.149C78.9948 112.149 80.1617 112.149 81.3287 112.149C81.3287 113.41 81.3287 114.671 81.3287 115.913C80.1806 115.913 79.0136 115.913 77.8467 115.913C77.8467 114.652 77.8467 113.391 77.8467 112.149Z" fill="#101E59"/>
<path d="M66.8369 28.9832C66.8369 30.1312 66.8369 31.298 66.8369 32.4649H63.5243C63.2231 32.4272 63.3549 29.5289 63.3549 28.9832C64.503 28.9832 65.6699 28.9832 66.8369 28.9832Z" fill="#101E59"/>
<path d="M186.523 25.2189C187.069 25.2189 189.968 25.0871 190.005 25.3883V28.9829C188.838 28.9829 187.672 28.9829 186.523 28.9829C186.523 27.722 186.523 26.461 186.523 25.2189Z" fill="#101E59"/>
<path d="M161.019 28.983C161.019 27.7221 161.019 26.4611 161.019 25.219H164.783V28.983C163.522 28.983 162.261 28.983 161.019 28.983C161 31.392 161.057 33.8198 161.019 36.2288C159.871 36.2288 158.704 36.2288 157.537 36.2288C157.537 33.8198 157.537 31.392 157.537 28.983C158.685 28.983 159.852 28.983 161.019 28.983Z" fill="#101E59"/>
<path d="M16.1109 115.913C16.1109 117.061 16.1109 118.228 16.1109 119.395C14.9628 119.395 13.7958 119.395 12.6289 119.395V116.082C12.6665 115.781 15.5651 115.913 16.1109 115.913Z" fill="#101E59"/>
<path d="M132.034 25.219C133.295 25.219 134.556 25.219 135.799 25.219C135.799 26.4799 135.78 27.7409 135.799 28.983C136.947 28.983 138.114 28.983 139.28 28.983V32.4647H135.799C135.799 31.3167 135.817 30.1499 135.799 28.983C134.537 28.983 133.276 28.983 132.034 28.983C132.034 27.7221 132.034 26.4611 132.034 25.219Z" fill="#101E59"/>
<path d="M23.3586 115.913C23.3586 118.322 23.3398 120.75 23.3586 123.159C20.9495 123.159 18.5215 123.159 16.1123 123.159C16.1123 121.898 16.1123 120.637 16.1123 119.395C17.3734 119.395 18.6344 119.395 19.8766 119.395C19.8766 118.247 19.8766 117.08 19.8766 115.913C21.0247 115.913 22.1917 115.913 23.3586 115.913Z" fill="#101E59"/>
<path d="M117.541 28.983C117.56 27.7221 117.541 26.4611 117.541 25.219H121.136C121.437 25.2566 121.287 28.4184 121.305 28.983C120.044 28.983 118.783 28.983 117.541 28.983Z" fill="#101E59"/>
<path d="M186.523 126.641C187.672 126.641 188.838 126.641 190.005 126.641C190.005 127.902 190.005 129.163 190.005 130.405C188.857 130.405 187.69 130.405 186.523 130.405C186.523 129.144 186.523 127.883 186.523 126.641Z" fill="#101E59"/>
<path d="M153.774 14.4914C152.626 14.4914 151.459 14.4914 150.292 14.4914V10.7274H153.774C153.774 11.9884 153.755 13.2493 153.774 14.4914C155.035 14.4914 156.296 14.4914 157.538 14.4914C157.538 15.6395 157.538 16.8063 157.538 17.9732C156.277 17.9732 155.016 17.9732 153.774 17.9732C153.774 16.8251 153.793 15.6583 153.774 14.4914Z" fill="#101E59"/>
<path d="M172.031 14.4914C170.77 14.4726 169.509 14.4914 168.267 14.4914V10.7274H172.031C172.031 11.9884 172.031 13.2493 172.031 14.4914C172.577 14.4914 175.476 14.3597 175.513 14.6608V17.9732C174.347 17.9732 173.18 17.9732 172.031 17.9732C172.031 19.2341 172.031 20.4951 172.031 21.7372C174.441 21.7372 176.869 21.7372 179.278 21.7372C179.259 22.8852 179.278 24.0521 179.278 25.2189H168.267V21.7372H164.785C164.785 20.4762 164.804 19.2153 164.785 17.9732C167.194 17.9732 169.622 18.0108 172.031 17.9732C172.031 16.8251 172.031 15.6583 172.031 14.4914Z" fill="#101E59"/>
<path d="M95.8027 25.219C97.0638 25.2378 98.3248 25.219 99.5671 25.219C99.5671 26.4799 99.5671 27.7409 99.5671 28.983C98.306 28.983 97.045 28.983 95.8027 28.983C95.8027 27.7221 95.8027 26.4611 95.8027 25.219Z" fill="#101E59"/>
<path d="M66.8369 25.2189C67.4016 25.2189 70.5636 25.0871 70.6012 25.3883V28.9829C69.3402 28.9829 68.0791 28.9829 66.8369 28.9829C66.8369 27.7408 66.8369 26.461 66.8369 25.2189Z" fill="#101E59"/>
<path d="M117.541 115.913C118.802 115.913 120.063 115.913 121.305 115.913C121.305 117.061 121.305 118.228 121.305 119.395C120.044 119.395 118.783 119.395 117.541 119.395C117.541 118.247 117.541 117.08 117.541 115.913Z" fill="#101E59"/>
<path d="M121.305 126.641C121.305 127.902 121.305 129.163 121.305 130.405C120.044 130.405 118.783 130.405 117.541 130.405C117.541 129.144 117.541 127.883 117.541 126.641C118.802 126.641 120.063 126.641 121.305 126.641Z" fill="#101E59"/>
<path d="M182.759 21.7373C184.02 21.7373 185.281 21.7373 186.523 21.7373C186.523 22.8853 186.523 24.0522 186.523 25.219C185.262 25.2002 184.001 25.219 182.759 25.219C182.759 24.071 182.778 22.9042 182.759 21.7373Z" fill="#101E59"/>
<path d="M157.538 21.7373C157.538 24.1463 157.538 26.5741 157.538 28.9831C156.277 28.9831 155.016 28.9831 153.773 28.9831V21.7373C155.034 21.7373 156.296 21.7561 157.538 21.7373Z" fill="#101E59"/>
<path d="M81.3287 119.395C81.3287 120.656 81.3287 121.917 81.3287 123.159C80.1806 123.159 79.0136 123.159 77.8467 123.159C77.8467 121.898 77.8467 120.637 77.8467 119.395C78.9948 119.395 80.1617 119.395 81.3287 119.395Z" fill="#101E59"/>
<path d="M179.276 21.7374C179.295 20.4765 179.276 19.2155 179.276 17.9734H182.589C182.89 18.011 182.74 21.1728 182.758 21.7374C181.61 21.7374 180.443 21.7374 179.276 21.7374Z" fill="#101E59"/>
<path d="M161.019 17.9734C161.019 19.2343 161.019 20.4953 161.019 21.7374C159.871 21.7374 158.704 21.7186 157.537 21.7374C157.537 20.4765 157.537 19.2155 157.537 17.9734C158.685 17.9734 159.852 17.9734 161.019 17.9734Z" fill="#101E59"/>
<path d="M117.541 119.395C117.541 121.804 117.541 124.232 117.541 126.641C116.393 126.641 115.226 126.641 114.059 126.641C114.059 125.493 114.059 124.326 114.059 123.159C110.389 123.159 106.719 123.159 103.049 123.159C103.049 121.898 103.049 120.637 103.049 119.395C107.867 119.395 112.723 119.395 117.541 119.395Z" fill="#101E59"/>
<path d="M146.527 25.2191C146.508 22.8102 146.545 20.3824 146.527 17.9734H150.291V25.2191C149.03 25.2191 147.769 25.2191 146.527 25.2191C146.527 26.4801 146.527 27.741 146.527 28.9832H150.291C150.291 30.1312 150.272 31.298 150.291 32.4649C149.03 32.4649 147.769 32.4649 146.527 32.4649V39.7106C145.378 39.7106 144.212 39.7106 143.045 39.7106C143.045 34.8927 143.101 30.0371 143.045 25.2191C141.784 25.2191 140.522 25.2191 139.28 25.2191V21.7374H143.045C143.045 22.8854 143.045 24.0523 143.045 25.2191C144.193 25.2191 145.36 25.2191 146.527 25.2191Z" fill="#101E59"/>
<path d="M27.1231 123.159C27.1231 124.307 27.1231 125.474 27.1231 126.64H23.5282C23.227 126.603 23.3588 123.704 23.3588 123.159C24.6198 123.159 25.8809 123.159 27.1231 123.159Z" fill="#101E59"/>
<path d="M99.5856 14.4915C99.5856 15.6395 99.5856 16.8063 99.5856 17.9732C98.3246 17.9732 97.0635 17.9544 95.8213 17.9732C95.8213 16.8252 95.8213 15.6583 95.8213 14.4915C97.0823 14.4915 98.3434 14.4915 99.5856 14.4915Z" fill="#101E59"/>
<path d="M132.034 21.7374C132.034 20.4765 132.034 19.2155 132.034 17.9734H135.798V21.7374C134.537 21.7374 133.276 21.7374 132.034 21.7374C132.034 22.8854 132.034 24.0523 132.034 25.2191C130.886 25.2191 129.719 25.2191 128.552 25.2191C128.552 26.4801 128.552 27.741 128.552 28.9832C127.291 28.9832 126.03 28.9832 124.788 28.9832C124.788 26.5742 124.769 24.1464 124.788 21.7374C127.197 21.7751 129.625 21.7562 132.034 21.7374Z" fill="#101E59"/>
<path d="M77.8466 123.159C77.8466 124.307 77.8466 125.474 77.8466 126.64C78.9947 126.64 80.1617 126.622 81.3286 126.64C81.3286 127.901 81.3286 129.162 81.3286 130.404C78.9194 130.423 76.4914 130.404 74.0823 130.404C74.0446 127.995 74.0635 125.568 74.0823 123.159C75.3433 123.159 76.6044 123.159 77.8466 123.159Z" fill="#101E59"/>
<path d="M110.294 17.9734C112.704 17.9734 115.132 17.9734 117.541 17.9734V21.7374H114.059C114.078 24.1464 114.04 26.5742 114.059 28.9832C111.65 28.9832 109.222 28.9832 106.812 28.9832C106.812 27.7222 106.812 26.4613 106.812 25.2191C107.961 25.2191 109.128 25.2191 110.294 25.2191C110.276 22.8102 110.313 20.3824 110.294 17.9734Z" fill="#101E59"/>
<path d="M106.833 17.9734C106.833 20.3824 106.833 22.8102 106.833 25.2191C105.572 25.2191 104.311 25.2191 103.068 25.2191V17.9734C104.329 17.9734 105.59 17.9734 106.833 17.9734Z" fill="#101E59"/>
<path d="M95.8033 17.9734C95.7656 20.3824 95.7845 22.8102 95.8033 25.2191C94.6552 25.2003 93.4882 25.2191 92.3213 25.2191V17.9734C93.4694 17.9734 94.6364 17.9922 95.8033 17.9734Z" fill="#101E59"/>
<path d="M52.3447 21.7374C49.9356 21.7186 47.5076 21.7374 45.0984 21.7374V17.9734H52.3447C52.3447 19.2343 52.3447 20.4953 52.3447 21.7374C53.6058 21.7374 54.8668 21.7374 56.1091 21.7374V25.2191C58.5182 25.2191 60.9462 25.2191 63.3554 25.2191C63.3554 26.4801 63.3554 27.741 63.3554 28.9832C58.5371 28.9832 53.6811 28.9267 48.8627 28.9832C48.8439 31.3921 48.8627 33.8199 48.8627 36.2289C47.6017 36.2289 46.3407 36.2289 45.0984 36.2289C45.0984 38.6379 45.0608 41.0657 45.0984 43.4747C43.9503 43.4747 42.7834 43.4747 41.6164 43.4747C41.6541 41.0657 41.6164 38.6379 41.6164 36.2289C40.3554 36.2289 39.0943 36.2289 37.8521 36.2289V32.4649H34.3701V28.9832H37.8521V25.2191H41.6164V36.2289C42.7646 36.2289 43.9315 36.2289 45.0984 36.2289C45.0984 33.8199 45.0984 31.3921 45.0984 28.9832C46.3595 28.9832 47.6205 28.9832 48.8627 28.9832C48.8627 27.7222 48.8627 26.4613 48.8627 25.2191H52.3447C52.3447 24.0711 52.3447 22.9043 52.3447 21.7374Z" fill="#101E59"/>
<path d="M106.833 14.4915C107.981 14.4915 109.148 14.4915 110.315 14.4915C110.315 15.6395 110.315 16.8063 110.315 17.9732C109.167 17.9732 108 17.9732 106.833 17.9732C106.833 16.8252 106.833 15.6583 106.833 14.4915Z" fill="#101E59"/>
<path d="M161.021 14.4915C162.282 14.4915 163.543 14.4915 164.785 14.4915C164.785 15.6395 164.766 16.8063 164.785 17.9732C163.524 17.9732 162.263 17.9732 161.021 17.9732C161.021 16.8252 161.021 15.6583 161.021 14.4915Z" fill="#101E59"/>
<path d="M41.6161 72.4574C41.6161 71.1964 41.6161 69.9355 41.6161 68.6934H45.0981V72.4574C43.95 72.4574 42.783 72.4574 41.6161 72.4574C41.5785 76.0144 41.5785 79.609 41.6161 83.1849C44.0253 83.2037 46.4533 83.1849 48.8624 83.1849V86.9489H41.6161C41.6161 85.6879 41.6161 84.427 41.6161 83.1849C40.3551 83.1849 39.094 83.1849 37.8518 83.1849V79.7031H30.6055V72.4574C31.8665 72.4574 33.1276 72.4574 34.3698 72.4574C34.3698 73.0032 34.238 75.9015 34.5392 75.9391H37.8518C37.8518 74.7723 37.8518 73.6054 37.8518 72.4574C39.1128 72.4574 40.3739 72.4574 41.6161 72.4574Z" fill="#101E59"/>
<path d="M34.3698 68.6934C33.1087 68.6746 31.8477 68.6934 30.6055 68.6934V65.2117H34.3698C34.3698 66.3597 34.3698 67.5265 34.3698 68.6934C35.5179 68.6934 36.6848 68.6934 37.8518 68.6934C37.8518 69.9543 37.8518 71.2153 37.8518 72.4574C36.7037 72.4574 35.5367 72.4574 34.3698 72.4574C34.3698 71.1965 34.3698 69.9355 34.3698 68.6934Z" fill="#101E59"/>
<path d="M157.537 3.48169H139.28V7.24571H157.537V3.48169Z" fill="#101E59"/>
<path d="M146.527 10.7274V14.4914H143.045V17.9732H139.28V10.7274H146.527Z" fill="#101E59"/>
<path d="M81.3293 10.7275C78.9202 10.7275 76.4922 10.7275 74.083 10.7275V7.24573H81.3293C81.3293 8.39376 81.3105 9.5606 81.3293 10.7275C83.7385 10.7275 86.1665 10.7275 88.5756 10.7275V17.9732C87.4275 17.9732 86.2606 17.9544 85.0936 17.9732C85.0936 19.2341 85.0936 20.4951 85.0936 21.7372C86.2418 21.7372 87.4087 21.7372 88.5756 21.7372V25.2189H85.0936C85.0936 24.0709 85.0936 22.9041 85.0936 21.7372C84.529 21.7372 81.367 21.869 81.3293 21.5678V17.9732C82.5904 17.9732 83.8514 17.992 85.0936 17.9732C85.0936 16.8252 85.0936 15.6583 85.0936 14.4915H81.3293C81.3293 13.2493 81.3481 11.9696 81.3293 10.7275Z" fill="#101E59"/>
<path d="M114.079 43.4744H106.833V46.9561H114.079V43.4744Z" fill="#101E59"/>
<path d="M117.543 61.4478H114.061V68.6935H117.543V61.4478Z" fill="#101E59"/>
<path d="M132.035 46.9561H128.553V54.2018H132.035V46.9561Z" fill="#101E59"/>
<path d="M56.1081 36.2286C54.847 36.2098 53.586 36.2286 52.3438 36.2286V32.4646H56.1081C56.1081 33.7255 56.0892 34.9865 56.1081 36.2286C57.2562 36.2286 58.4231 36.2286 59.5901 36.2286V39.7103H56.1081C56.1081 38.5623 56.1269 37.3955 56.1081 36.2286Z" fill="#101E59"/>
<path d="M106.832 0H103.049V3.48172H106.832V0Z" fill="#101E59"/>
<path d="M74.0836 17.9732C74.0836 16.8252 74.0836 15.6583 74.0836 14.4915H77.8479V17.9732C76.5868 17.9732 75.3258 17.9544 74.0836 17.9732C74.0836 19.2153 74.0836 20.4951 74.0836 21.7372C75.3446 21.756 76.6057 21.7372 77.8479 21.7372C77.8479 22.8852 77.8291 24.0521 77.8479 25.2189C78.996 25.2189 80.1629 25.2189 81.3299 25.2189V28.9829H77.8479C77.8479 27.722 77.8667 26.4611 77.8479 25.2189C76.5868 25.2001 75.3258 25.2189 74.0836 25.2189C74.0836 24.0709 74.0836 22.9041 74.0836 21.7372C72.9354 21.7372 71.7685 21.7372 70.6016 21.7372V18.1426C70.6392 17.8414 73.5377 17.992 74.0836 17.9732Z" fill="#101E59"/>
<path d="M114.06 54.2019C112.799 54.1831 111.538 54.2019 110.296 54.2019V50.7202H114.06C114.06 51.8682 114.041 53.0351 114.06 54.2019C115.208 54.2019 116.375 54.2019 117.542 54.2019V57.966H114.06C114.06 56.705 114.079 55.4441 114.06 54.2019Z" fill="#101E59"/>
<path d="M92.3408 39.6917H88.5576V43.4745H92.3408V39.6917Z" fill="#101E59"/>
</g>
<defs>
<clipPath id="clip0_3_5809">
<rect width="230" height="208" fill="white"/>
</clipPath>
</defs>
</svg>
